<svg width="68" height="68" viewBox="0 0 68 68" fill="none" xmlns="http://www.w3.org/2000/svg">
<g clip-path="url(#clip0_0_66)">
<path d="M42.3584 25.6416C39.7244 23.0077 36.222 21.5571 32.4976 21.5571C28.7726 21.5571 25.2702 23.0077 22.6367 25.6416L9.48883 38.7896C4.86011 43.4178 4.1727 50.5165 7.42401 55.8803L0.972229 62.3321C-0.324249 63.6286 -0.324249 65.7308 0.972229 67.0278C1.62073 67.6758 2.47052 68 3.32031 68C4.17011 68 5.0199 67.6758 5.66788 67.0278L12.1197 60.576C14.3329 61.9171 16.8412 62.5889 19.3496 62.5889C22.9205 62.5889 26.4919 61.2297 29.2104 58.5112L37.3935 50.3282C36.7693 50.3935 36.1385 50.4272 35.5024 50.4272C33.2721 50.4272 31.1046 50.0221 29.0823 49.248L24.5148 53.8155C22.5117 55.8186 19.6262 56.4111 17.0991 55.5966L21.6054 51.0903C22.9024 49.7933 22.9024 47.6911 21.6054 46.3946C20.3089 45.0976 18.2067 45.0976 16.9097 46.3946L12.4034 50.9014C11.5894 48.3738 12.1814 45.4883 14.1845 43.4857L22.824 34.8456L27.3324 30.3378C28.7119 28.9578 30.5464 28.1983 32.4976 28.1983C34.4482 28.1983 36.2827 28.9578 37.6627 30.3378C38.4928 31.1679 39.0967 32.1629 39.4474 33.2488L44.4258 28.2699C43.851 27.3257 43.1599 26.4432 42.3584 25.6416V25.6416Z" fill="#EF0C0C" stroke="white" stroke-width="3"/>
<path d="M67.0273 0.972748C65.7308 -0.324249 63.6286 -0.324249 62.3316 0.972748L55.8788 7.42557C50.4739 4.1618 43.3264 4.95193 38.6837 9.59467L30.6065 17.6718C31.2307 17.607 31.8615 17.5728 32.4976 17.5728C34.7279 17.5728 36.8954 17.9779 38.9177 18.752L43.4852 14.1845C44.9093 12.7604 46.7801 12.0486 48.6504 12.0486C49.4109 12.0486 50.171 12.1679 50.9014 12.4034L46.3946 16.9102C45.0976 18.2067 45.0976 20.3089 46.3946 21.6059C47.0426 22.2539 47.8924 22.5781 48.7422 22.5781C49.592 22.5781 50.4418 22.2539 51.0898 21.6059L55.5696 17.1261C56.341 19.6837 55.6977 22.6321 53.7263 24.604L40.6676 37.6627C39.2881 39.0422 37.4536 39.8022 35.5024 39.8022C33.5518 39.8022 31.7173 39.0422 30.3373 37.6627C29.5072 36.8326 28.9033 35.8371 28.5526 34.7517L23.5742 39.7301C24.2585 40.8549 25.1083 41.8914 26.1132 42.8087C28.5765 45.0577 31.7878 46.3495 35.1227 46.4377C38.9888 46.5399 42.6401 45.0815 45.3633 42.3584L58.5112 29.2104C63.1394 24.5822 63.8273 17.4835 60.5755 12.1202L67.0273 5.6684C68.3242 4.3714 68.3242 2.26923 67.0273 0.972748V0.972748Z" fill="#EF0C0C" stroke="white" stroke-width="3"/>
</g>
<defs>
<clipPath id="clip0_0_66">
<rect width="68" height="68" fill="white"/>
</clipPath>
</defs>
</svg>
