<svg width="19" height="19" viewBox="0 0 19 19" fill="none" xmlns="http://www.w3.org/2000/svg">
<path d="M9.42298 4.73486C8.95324 4.73486 8.49406 4.87415 8.1035 5.13512C7.71293 5.39609 7.40852 5.76702 7.22876 6.20099C7.049 6.63496 7.00197 7.1125 7.09361 7.5732C7.18525 8.03391 7.41145 8.45709 7.7436 8.78924C8.07575 9.12139 8.49893 9.34759 8.95964 9.43923C9.42034 9.53087 9.89787 9.48384 10.3318 9.30408C10.7658 9.12432 11.1367 8.81991 11.3977 8.42934C11.6587 8.03878 11.798 7.57959 11.798 7.10986C11.7973 6.48019 11.5468 5.87652 11.1016 5.43128C10.6563 4.98603 10.0526 4.73558 9.42298 4.73486ZM9.42298 8.29736C9.18811 8.29736 8.95852 8.22772 8.76324 8.09723C8.56795 7.96675 8.41575 7.78129 8.32587 7.5643C8.23599 7.34731 8.21247 7.10855 8.25829 6.87819C8.30411 6.64784 8.41721 6.43625 8.58329 6.27017C8.74936 6.1041 8.96095 5.991 9.19131 5.94518C9.42166 5.89936 9.66042 5.92288 9.87741 6.01276C10.0944 6.10264 10.2799 6.25484 10.4103 6.45012C10.5408 6.64541 10.6105 6.875 10.6105 7.10986C10.6101 7.4247 10.4849 7.72653 10.2623 7.94915C10.0396 8.17177 9.73781 8.297 9.42298 8.29736Z" fill="#FF0027"/>
<path d="M13.9868 2.54263C12.8584 1.41452 11.3522 0.74438 9.75871 0.661542C8.16528 0.578704 6.59763 1.08904 5.35834 2.09406C4.11905 3.09908 3.29597 4.52754 3.04795 6.10373C2.79993 7.67993 3.14455 9.29213 4.01531 10.6292L8.50209 17.5172C8.60194 17.6704 8.73846 17.7963 8.89928 17.8835C9.0601 17.9707 9.24013 18.0163 9.42305 18.0163C9.60598 18.0163 9.78601 17.9707 9.94683 17.8835C10.1076 17.7963 10.2442 17.6704 10.344 17.5172L14.8309 10.6292C15.6389 9.38887 15.996 7.90853 15.8423 6.43627C15.6886 4.96402 15.0335 3.58933 13.9868 2.54263ZM13.836 9.98098L9.42307 16.7553L5.01014 9.98098C3.65936 7.90735 3.94907 5.13231 5.699 3.38231C6.18805 2.89324 6.76863 2.5053 7.40761 2.24062C8.04659 1.97594 8.73145 1.83971 9.42307 1.83971C10.1147 1.83971 10.7996 1.97594 11.4385 2.24062C12.0775 2.5053 12.6581 2.89324 13.1471 3.38231C14.8971 5.13231 15.1868 7.90735 13.836 9.98098Z" fill="#FF0027"/>
</svg>
