<svg width="21" height="21" viewBox="0 0 21 21" fill="none" xmlns="http://www.w3.org/2000/svg">
<path d="M3.9375 3.93785L13.3494 3.93522C13.2339 4.26335 13.1591 4.61379 13.1342 4.97604L13.125 5.25035H3.9375C3.5894 5.25035 3.25556 5.38863 3.00942 5.63477C2.76328 5.88091 2.625 6.21475 2.625 6.56285V6.81354L9.84375 10.4229L14.3955 8.14704C14.7761 8.49747 15.225 8.7731 15.7211 8.95291L10.1364 11.7433C9.99002 11.8166 9.82149 11.8325 9.66394 11.7879L9.54844 11.7433L2.625 8.28222V14.4379C2.625 14.7859 2.76328 15.1198 3.00942 15.3659C3.25556 15.6121 3.5894 15.7504 3.9375 15.7504H15.75C16.0981 15.7504 16.4319 15.6121 16.6781 15.3659C16.9242 15.1198 17.0625 14.7859 17.0625 14.4379V9.18785C17.5232 9.18785 17.9655 9.1091 18.375 8.96341V14.4379C18.375 15.134 18.0984 15.8017 17.6062 16.294C17.1139 16.7863 16.4462 17.0629 15.75 17.0629H3.9375C3.24131 17.0629 2.57363 16.7863 2.08134 16.294C1.58906 15.8017 1.3125 15.134 1.3125 14.4379V6.56285C1.3125 5.86666 1.58906 5.19898 2.08134 4.70669C2.57363 4.21441 3.24131 3.93785 3.9375 3.93785V3.93785ZM17.0625 7.87535C16.9627 7.87535 16.8656 7.8701 16.7685 7.8596L16.5427 7.82416L16.4561 7.80447L16.3354 7.77297C16.1924 7.732 16.0532 7.67887 15.9193 7.61416L15.7001 7.49472C15.346 7.27963 15.0478 6.98376 14.8299 6.63131C14.6121 6.27887 14.4807 5.87985 14.4467 5.46691L14.4375 5.25035L14.4401 5.13222L14.4519 4.97341L14.4808 4.77391L14.5359 4.53504L14.6042 4.32897L14.6856 4.13472L14.7906 3.93654C14.9875 3.59557 15.2586 3.30328 15.5839 3.08132C15.9091 2.85936 16.2801 2.7134 16.6694 2.65428C17.0587 2.59515 17.4563 2.62436 17.8328 2.73974C18.2093 2.85512 18.555 3.05372 18.8443 3.32083C19.1336 3.58794 19.3591 3.91672 19.5041 4.2828C19.6491 4.64889 19.7099 5.04291 19.682 5.43568C19.6541 5.82844 19.5381 6.2099 19.3428 6.55179C19.1474 6.89367 18.8777 7.18723 18.5535 7.41072L18.3632 7.53147L18.1781 7.62729L17.9287 7.72966L17.85 7.75591L17.6492 7.80841L17.4969 7.83991L17.2909 7.86616C17.2149 7.87249 17.1387 7.87556 17.0625 7.87535Z" fill="#EF0C0C"/>
</svg>
