<svg width="68" height="68" viewBox="0 0 68 68" fill="none" xmlns="http://www.w3.org/2000/svg">
<g clip-path="url(#clip0_0_69)">
<path d="M14.8965 37.2515C14.8965 30.8964 20.0673 25.7257 26.4224 25.7257C32.7775 25.7257 37.9482 30.8964 37.9482 37.2515C37.9482 43.6066 32.7773 48.7775 26.4224 48.7775C20.0674 48.7775 14.8965 43.6066 14.8965 37.2515ZM18.0841 37.2514C18.0841 41.8496 21.8242 45.5898 26.4224 45.5898C31.0206 45.5898 34.7607 41.8496 34.7607 37.2514C34.7607 32.6532 31.0204 28.9131 26.4224 28.9131C21.8243 28.9131 18.0841 32.6532 18.0841 37.2514Z" fill="#EF0C0C" stroke="white" stroke-width="0.8"/>
<path d="M28.9934 14.769H29.2243L29.3398 14.569L36.0069 3.02195H57.0277L67.5381 21.2265L57.0278 39.4311H51.3557H51.1247L51.0093 39.6311L39.4028 59.7342H13.4422L0.461881 37.2515L13.4422 14.769H28.9934ZM37.3315 56.5466H37.5624L37.6779 56.3466L48.5869 37.4515L48.7024 37.2514L48.5869 37.0515L37.6779 18.1566L37.5624 17.9566H37.3315H15.5134H15.2825L15.167 18.1566L4.25802 37.0515L4.14255 37.2514L4.25802 37.4515L15.167 56.3466L15.2825 56.5466H15.5134H37.3315ZM41.3288 17.6466L41.1844 17.855L41.3111 18.0745L46.6433 27.3102L46.7696 27.529L47.0215 27.5089C50.2627 27.2507 52.8214 24.5335 52.8214 21.2265C52.8214 17.7501 49.9937 14.9223 46.5172 14.9223C44.4331 14.9223 42.4939 15.9655 41.3288 17.6466ZM48.9996 30.3868L48.4981 30.5229L48.7579 30.9729L51.632 35.9508V36.2437H52.032H54.9564H55.1874L55.3029 36.0437L63.742 21.4267L63.8574 21.2267L63.742 21.0267L55.3029 6.40963L55.1874 6.20963H54.9564H38.0781H37.8471L37.7317 6.40962L33.2514 14.1691L32.9049 14.7691H33.5978H39.395H39.5647L39.6826 14.6472C41.4473 12.8222 43.9092 11.7349 46.5172 11.7349C51.7506 11.7349 56.009 15.9933 56.009 21.2267C56.009 25.6002 53.0335 29.2923 48.9996 30.3868Z" fill="#EF0C0C" stroke="white" stroke-width="0.8"/>
</g>
<defs>
<clipPath id="clip0_0_69">
<rect width="68" height="68" fill="white"/>
</clipPath>
</defs>
</svg>
