<svg width="63" height="63" viewBox="0 0 63 63" fill="none" xmlns="http://www.w3.org/2000/svg">
<g clip-path="url(#clip0_2_171)">
<path d="M18.6605 27.333L18.6582 27.3731C18.503 30.0918 20.0259 32.6387 22.539 33.8598L22.5647 33.8724C23.4507 34.2962 24.177 34.9949 24.6351 35.8637L24.6454 35.8826C25.9117 38.2938 28.5308 39.7554 31.3228 39.6088L31.3652 39.6065C32.3778 39.5498 33.3829 39.8109 34.2397 40.3539C36.6039 41.8326 39.605 41.8326 41.9692 40.3539C42.826 39.8109 43.8311 39.5498 44.8437 39.6065L44.8861 39.6088C47.6735 39.7565 50.296 38.2938 51.5652 35.8786L51.5715 35.8654C52.0314 34.9943 52.7593 34.2945 53.6482 33.8701L53.6688 33.8598C56.1819 32.6381 57.7053 30.0918 57.5496 27.3725L57.5473 27.3347C57.4957 26.3771 57.7615 25.4293 58.3044 24.6383C59.8674 22.3589 59.8674 19.3532 58.305 17.0732C57.7626 16.2829 57.4957 15.3356 57.5473 14.378L57.5496 14.3379C57.7053 11.6186 56.1819 9.07229 53.6665 7.85009L53.6436 7.83864C52.7593 7.41597 52.0348 6.72068 51.5761 5.85415L51.5629 5.82838C50.296 3.41721 47.6735 1.9562 44.8861 2.10224L44.8431 2.10453C43.8311 2.16123 42.826 1.90007 41.9698 1.35713H41.9686C39.6044 -0.121646 36.6033 -0.121646 34.2391 1.35713C33.3823 1.8995 32.3772 2.16066 31.3646 2.10396L31.3223 2.10167C28.5342 1.9539 25.9123 3.41664 24.646 5.82723L24.6363 5.84499C24.1775 6.71553 23.4507 7.41482 22.5636 7.83921L22.5395 7.85067C20.0264 9.07171 18.503 11.6186 18.6588 14.3379L18.6611 14.3757C18.7126 15.3333 18.4469 16.2812 17.9039 17.0715C16.3409 19.3515 16.3409 22.3578 17.9039 24.6372C18.4463 25.4276 18.7126 26.3754 18.6605 27.333ZM19.8346 18.4037C20.6725 17.1838 21.0831 15.721 21.0029 14.2434L21.0006 14.2033C20.9182 12.4015 21.9296 10.728 23.5624 9.9623L23.5825 9.95256C24.9221 9.31111 26.0188 8.25501 26.7107 6.94118L26.7221 6.91942C27.5635 5.31694 29.3257 4.3456 31.1974 4.44525L31.2386 4.44697C32.7363 4.53116 34.2225 4.14514 35.4894 3.34219C37.089 2.34164 39.1187 2.34164 40.7184 3.34219C41.9852 4.144 43.4714 4.53059 44.9685 4.44754L45.0098 4.44525C46.8906 4.34674 48.6443 5.31694 49.4833 6.91484L49.4988 6.94405C50.1906 8.25616 51.2863 9.31054 52.6241 9.95142L52.6436 9.96115C54.3022 10.7675 55.3091 12.4325 55.2077 14.2039L55.2054 14.2457C55.1252 15.7233 55.5364 17.1855 56.3743 18.4054C57.3869 19.8824 57.3863 21.8297 56.3732 23.3062C55.5359 24.5267 55.1252 25.9894 55.2054 27.467L55.2077 27.5065C55.3091 29.278 54.3022 30.9435 52.643 31.7504L52.6259 31.7584C51.2851 32.401 50.1872 33.4583 49.4948 34.7744L49.4862 34.7916C48.6443 36.3941 46.8849 37.366 45.0103 37.2658L44.9697 37.2635C43.472 37.1798 41.9852 37.5664 40.7178 38.3688C39.1187 39.3688 37.089 39.3688 35.49 38.3688C34.3376 37.6386 33.0009 37.2514 31.6367 37.2526C31.5044 37.2526 31.3715 37.256 31.2386 37.2635L31.1974 37.2652C29.3504 37.3826 27.603 36.4158 26.7204 34.7887L26.7084 34.7664C26.0177 33.4548 24.9226 32.401 23.5853 31.7602L23.5636 31.7493C21.9044 30.9429 20.8975 29.2774 20.9995 27.5065L21.0018 27.4647C21.0814 25.9871 20.6702 24.5244 19.8328 23.305C18.8208 21.828 18.8214 19.8807 19.8346 18.4048V18.4037Z" fill="#EE0C0C"/>
<path d="M30.5359 32.9811C31.0852 33.3242 31.8085 33.1564 32.1516 32.6072L46.0464 10.3477C46.2732 9.992 46.2921 9.54184 46.0951 9.169C45.8981 8.79558 45.5155 8.55733 45.094 8.54415C44.6724 8.53098 44.2761 8.74518 44.0562 9.10542L30.1619 31.3649C29.8189 31.9147 29.9861 32.6381 30.5359 32.9811Z" fill="#EE0C0C"/>
<path d="M31.781 20.9133C34.6372 20.9133 36.9613 18.2633 36.9613 15.0062C36.9613 11.7492 34.6372 9.09973 31.781 9.09973C28.9249 9.09973 26.6013 11.7492 26.6013 15.0062C26.6013 18.2633 28.9249 20.9133 31.781 20.9133ZM31.781 11.4456C33.344 11.4456 34.6154 13.0429 34.6154 15.0062C34.6154 16.9695 33.344 18.5674 31.781 18.5674C30.2186 18.5674 28.9472 16.969 28.9472 15.0062C28.9472 13.0435 30.2186 11.4456 31.781 11.4456Z" fill="#EE0C0C"/>
<path d="M39.2469 26.7058C39.2469 29.9629 41.5705 32.6123 44.4267 32.6123C47.2829 32.6123 49.607 29.9623 49.607 26.7058C49.607 23.4499 47.2834 20.7993 44.4272 20.7993C41.5705 20.7993 39.2469 23.4482 39.2469 26.7058ZM47.2611 26.7058C47.2611 28.6691 45.9896 30.2664 44.4267 30.2664C42.8643 30.2664 41.5928 28.6691 41.5928 26.7058C41.5928 24.7425 42.8643 23.1452 44.4267 23.1452C45.9896 23.1452 47.2611 24.7414 47.2611 26.7058Z" fill="#EE0C0C"/>
<path d="M62.8479 46.183C61.2947 43.4265 57.8503 42.3767 55.0239 43.7982L45.8357 48.1394C44.5672 45.7804 42.1337 44.2787 39.4556 44.2031L30.9736 43.9694C29.6305 43.9311 28.3127 43.5903 27.1186 42.974L26.2555 42.5267C21.8363 40.2232 16.569 40.229 12.1545 42.5416L12.2083 40.5863C12.226 39.9386 11.7158 39.3991 11.068 39.3813L1.76697 39.1253C1.11922 39.1076 0.58029 39.6179 0.562535 40.2656L0.00069373 60.6769C-0.0170608 61.3247 0.493236 61.8642 1.14099 61.8819L10.442 62.1379H10.4747C11.1098 62.1374 11.6293 61.6317 11.647 60.9971L11.6734 60.0206L14.0897 58.7268C15.0381 58.2165 16.1475 58.0951 17.1835 58.3883L31.6122 62.4381C31.6374 62.4455 31.6626 62.4512 31.6883 62.457C32.7313 62.6752 33.7942 62.7846 34.8601 62.784C37.1166 62.7851 39.3468 62.2989 41.3977 61.3573C41.4481 61.3344 41.4968 61.3081 41.5432 61.2783L62.4636 47.7454C62.9854 47.4086 63.1538 46.7231 62.8479 46.183ZM2.37807 59.5687L2.87519 41.5033L9.83149 41.6946L9.33379 59.7606L2.37807 59.5687ZM40.3405 59.2612C37.7924 60.4112 34.9466 60.7285 32.2078 60.1684L17.8175 56.1301C16.1985 55.6719 14.4643 55.862 12.9826 56.6587L11.7478 57.3196L12.0789 45.3079C15.9911 42.7054 21.0093 42.438 25.1765 44.6092L26.0396 45.0565C27.5481 45.8354 29.2125 46.2655 30.9094 46.3142L39.3915 46.5478C41.774 46.616 43.7974 48.3124 44.2808 50.6468L31.6465 50.2992C30.9988 50.2814 30.4598 50.7917 30.4421 51.4395C30.4243 52.0872 30.9346 52.6267 31.5824 52.6445L45.5253 53.0282H45.5585C46.1931 53.0276 46.7126 52.5219 46.7303 51.8873C46.7447 51.3776 46.7063 50.8673 46.6169 50.3656L56.0394 45.9127L56.0669 45.8995C57.4036 45.2225 59.0204 45.4488 60.1195 46.4665L40.3405 59.2612Z" fill="#EE0C0C"/>
</g>
<defs>
<clipPath id="clip0_2_171">
<rect width="63" height="63" fill="white"/>
</clipPath>
</defs>
</svg>
