<svg width="63" height="63" viewBox="0 0 63 63" fill="none" xmlns="http://www.w3.org/2000/svg">
<path d="M55.5334 52.1438C55.3934 43.5818 46.6393 41.0522 40.2472 39.2051C39.5014 38.9897 38.7842 38.7823 38.1121 38.5753V35.0433C39.4189 34.2241 40.564 33.17 41.4877 31.9404H45.3814C47.2868 31.9404 48.837 30.3901 48.837 28.4847V24.3016C49.068 23.7632 49.1963 23.1706 49.1963 22.5483V21.2473C49.1963 20.6257 49.068 20.0335 48.837 19.4954V17.3374C48.837 7.77758 41.0597 0 31.5 0C21.9422 0 14.1665 7.77758 14.1665 17.3375V19.4337C14.1665 19.4502 14.1683 19.4661 14.1689 19.4825C13.9344 20.0241 13.8037 20.6206 13.8037 21.2474V22.5484C13.8037 25.0078 15.803 27.0086 18.2604 27.0086H19.2773C19.9816 30.3861 22.055 33.2666 24.888 35.0427V38.5753C24.2158 38.7823 23.4986 38.9895 22.7528 39.2051C16.3608 41.0522 7.6067 43.5819 7.46668 52.1438C7.46655 52.1505 7.46655 52.1572 7.46655 52.164V61.7695C7.46655 62.4491 8.01756 63 8.69703 63H12.3451C13.0246 63 13.5756 62.4491 13.5756 61.7695C13.5756 61.0899 13.0246 60.5391 12.3451 60.5391H9.92738V52.1742C9.97918 49.187 11.3514 46.9476 14.2456 45.1271C16.1554 43.9258 18.4902 43.0699 20.7917 42.3539L23.7647 48.1462C24.096 48.7918 24.9444 49.0112 25.5474 48.6044L26.873 47.7103L28.011 51.9878L26.0611 60.5389H23.3944C22.715 60.5389 22.1639 61.0898 22.1639 61.7694C22.1639 62.449 22.715 62.9999 23.3944 62.9999H54.3031C54.9825 62.9999 55.5335 62.449 55.5335 61.7694V52.1638C55.5335 52.1572 55.5335 52.1505 55.5334 52.1438ZM39.5641 41.5692C39.6452 41.5926 39.7276 41.6166 39.8093 41.6402L37.6822 45.7886L33.7015 43.1044L37.0743 40.8293C37.8579 41.0759 38.6912 41.317 39.5641 41.5692ZM31.5009 44.5887L33.9682 46.2525L32.7758 50.7346H30.2243L29.0322 46.2539L31.5009 44.5887ZM31.5007 41.6204L27.3488 38.8207V36.2303C28.6483 36.6899 30.045 36.942 31.4999 36.942C32.9547 36.942 34.3517 36.6908 35.651 36.2312V38.8207L31.5007 41.6204ZM41.5246 17.5625C41.5077 17.5518 41.491 17.5411 41.4741 17.5304C38.9493 15.9232 36.7687 14.5351 33.3519 15.5127C33.3202 15.5218 33.2887 15.5321 33.2578 15.5437C32.5334 15.8158 31.8747 16.0694 31.2376 16.3146C27.3465 17.8125 25.2219 18.6305 21.4754 18.5251V17.5398C21.4754 12.012 25.9724 7.51487 31.4999 7.51487C37.0275 7.51487 41.5245 12.012 41.5245 17.5398V17.5625H41.5246ZM46.3761 28.4847C46.3761 29.0333 45.9299 29.4794 45.3814 29.4794H42.9293C43.2755 28.6945 43.5438 27.8678 43.7229 27.0085H44.7398C45.3175 27.0085 45.8691 26.8968 46.3762 26.6956V28.4847H46.3761ZM46.7354 22.5483C46.7354 23.6507 45.8402 24.5476 44.7397 24.5476H43.9844C43.9847 24.5171 43.9857 19.2515 43.9857 19.2515H44.7398C45.8402 19.2515 46.7355 20.1468 46.7355 21.2473V22.5483H46.7354ZM18.2604 24.5477C17.16 24.5477 16.2647 23.6508 16.2647 22.5484V21.2474C16.2647 20.1469 17.1599 19.2516 18.2604 19.2516H19.0145C19.0145 19.2516 19.0155 24.5172 19.0158 24.5477H18.2604ZM19.0376 16.7906H18.2603C17.685 16.7906 17.1356 16.9013 16.6304 17.1006C16.7575 9.00657 23.3784 2.46095 31.5 2.46095C39.624 2.46095 46.2468 9.00731 46.373 17.102C45.8669 16.9018 45.3162 16.7906 44.7397 16.7906H43.9624C43.5736 10.2533 38.1329 5.05392 31.5 5.05392C24.867 5.05392 19.4264 10.2534 19.0376 16.7906ZM21.5494 25.6533C21.5493 25.6521 21.5491 25.6508 21.549 25.6496C21.5023 25.2579 21.4755 24.8602 21.4755 24.4563V20.986C25.6853 21.0886 28.1966 20.1224 32.1217 18.6114C32.7399 18.3734 33.3788 18.1275 34.0749 17.8657C36.3993 17.2169 37.7367 18.0685 40.1526 19.6065C40.5718 19.8734 41.0317 20.1659 41.5246 20.4662V24.4563C41.5246 26.2861 41.0294 28.0014 40.1697 29.4796H31.5C30.8206 29.4796 30.2696 30.0304 30.2696 30.71C30.2696 31.3896 30.8206 31.9405 31.5 31.9405H38.1599C36.3877 33.5193 34.0545 34.4812 31.5 34.4812C26.3777 34.4811 22.1431 30.6184 21.5494 25.6533ZM25.3208 45.7887L23.1914 41.64C23.2728 41.6165 23.355 41.5926 23.436 41.5692C24.3089 41.317 25.1422 41.0758 25.926 40.8292L29.3002 43.1046L25.3208 45.7887ZM28.5853 60.5391L30.2598 53.1956H32.7406L34.4177 60.5391H28.5853ZM53.0726 60.5391H36.9421L34.989 51.9876L36.1276 47.7085L37.4564 48.6046C38.0596 49.0112 38.908 48.7918 39.2392 48.1458L42.2089 42.3541C44.5102 43.0701 46.8449 43.9259 48.7546 45.1271C51.6487 46.9475 53.021 49.187 53.0728 52.1742V60.5391H53.0726Z" fill="#EE0C0C"/>
<path d="M48.2134 54.3863H42.0122C41.3327 54.3863 40.7817 54.9372 40.7817 55.6168C40.7817 56.2963 41.3327 56.8472 42.0122 56.8472H48.2134C48.8929 56.8472 49.4439 56.2963 49.4439 55.6168C49.4439 54.9372 48.893 54.3863 48.2134 54.3863Z" fill="#EE0C0C"/>
<path d="M17.8699 60.5389C17.1904 60.5389 16.6394 61.0898 16.6394 61.7694C16.6394 62.449 17.1904 62.9999 17.8699 62.9999H17.8733C18.5528 62.9999 19.1019 62.449 19.1019 61.7694C19.1019 61.0898 18.5493 60.5389 17.8699 60.5389Z" fill="#EE0C0C"/>
</svg>
