<svg width="16" height="21" viewBox="0 0 16 21" fill="none" xmlns="http://www.w3.org/2000/svg">
<path d="M3.34877 1.50552L4.66787 1.10967C5.26834 0.929178 5.91422 0.97257 6.48493 1.23174C7.05565 1.49091 7.51219 1.94815 7.76934 2.5181L8.5902 4.33743C8.81139 4.82754 8.87301 5.37435 8.76641 5.90112C8.65981 6.4279 8.39034 6.9082 7.99581 7.27463L6.56149 8.60706C6.54377 8.62356 6.52922 8.64314 6.51858 8.66486C6.36839 8.97045 6.59646 9.7867 7.31084 11.0202C8.1166 12.4104 8.7388 12.9598 9.02726 12.8751L10.9098 12.3011C11.4253 12.1443 11.9772 12.1521 12.4881 12.3235C12.9989 12.4948 13.4432 12.8212 13.7585 13.2567L14.9251 14.8662C15.2913 15.3716 15.4609 15.9923 15.4025 16.6129C15.344 17.2335 15.0614 17.8118 14.6072 18.2405L13.6036 19.1865C13.2546 19.5159 12.8308 19.7563 12.3683 19.8871C11.9059 20.0179 11.4186 20.0353 10.9479 19.9379C8.15315 19.3583 5.64925 17.1163 3.41472 13.2607C1.1794 9.40272 0.482502 6.11717 1.38044 3.4151C1.53075 2.96272 1.78815 2.55304 2.13088 2.22067C2.47362 1.8883 2.89162 1.64301 3.34956 1.50552H3.34877ZM3.69364 2.6424C3.41886 2.72485 3.16804 2.872 2.96237 3.07139C2.75671 3.27079 2.60223 3.51657 2.51201 3.78799C1.73803 6.11638 2.365 9.07417 4.44696 12.6669C6.52732 16.2573 8.78251 18.2761 11.1903 18.7749C11.4728 18.8334 11.7653 18.8229 12.0429 18.7443C12.3205 18.6657 12.5749 18.5214 12.7843 18.3236L13.7871 17.3783C14.0318 17.1476 14.1841 16.8361 14.2157 16.502C14.2472 16.1678 14.1559 15.8335 13.9588 15.5614L12.7923 13.951C12.6225 13.7166 12.3833 13.5409 12.1083 13.4486C11.8333 13.3563 11.5362 13.352 11.2586 13.4364L9.37133 14.012C8.32718 14.3216 7.34501 13.4546 6.2786 11.6131C5.3751 10.0551 5.06201 8.92929 5.4482 8.14313C5.5229 7.99112 5.62461 7.85416 5.74857 7.73857L7.1829 6.40614C7.39542 6.20883 7.54058 5.95017 7.59802 5.66647C7.65545 5.38277 7.62227 5.08828 7.50314 4.82432L6.68228 3.00579C6.54381 2.69881 6.29794 2.45255 5.99056 2.31298C5.68318 2.1734 5.33532 2.15007 5.01194 2.24734L3.69284 2.64319L3.69364 2.6424Z" fill="#EF0C0C" stroke="#F00C0C" stroke-width="0.2"/>
</svg>
