<svg width="68" height="68" viewBox="0 0 68 68" fill="none" xmlns="http://www.w3.org/2000/svg">
<path d="M31.1606 20.8342C30.019 15.7622 24.9814 12.5772 19.9094 13.7188C14.8379 14.8605 11.6528 19.898 12.7945 24.9696C13.9362 30.0416 18.9737 33.2266 24.0453 32.0849C24.0533 32.0836 24.0609 32.0809 24.0676 32.0796C29.1092 30.9683 32.2956 25.9808 31.1843 20.9392C31.1763 20.9039 31.1682 20.8681 31.1606 20.8342ZM21.9318 29.6801C18.1971 29.7002 15.1529 26.6877 15.1332 22.9526C15.1158 19.7649 17.3281 16.9977 20.442 16.3122C20.9353 16.2001 21.4389 16.142 21.9452 16.1406C25.6789 16.2385 28.6267 19.3444 28.5288 23.0795C28.4497 26.1063 26.3697 28.71 23.4349 29.4562C22.959 29.5657 22.4724 29.6224 21.9845 29.6274L21.9318 29.6801Z" fill="#EF0C0C"/>
<path d="M65.2142 8.57307C64.7736 8.55475 64.3532 8.75761 64.0936 9.11373L59.7825 14.9538C58.766 16.2764 56.8875 16.5611 55.5242 15.5999C54.1676 14.5981 53.8785 12.6866 54.8781 11.3287L58.9385 5.8179C59.3898 5.24551 59.2919 4.41753 58.72 3.96668C58.535 3.82191 58.3151 3.72807 58.0814 3.69501C51.7614 2.73789 45.8615 7.08601 44.9044 13.4078C44.6988 14.7671 44.7372 16.1527 45.0165 17.4985L43.4611 19.0544L42.4852 14.7563C42.3221 14.0472 41.6139 13.6039 40.9048 13.7675H40.9034L37.146 14.6245C36.4945 13.4261 35.7023 12.3108 34.7859 11.3023L36.8426 8.04581C37.2314 7.43007 37.0495 6.61684 36.4338 6.22631L30.7648 2.65344C30.1491 2.2647 29.3358 2.44656 28.9458 3.06229L26.889 6.33176C25.6026 5.94436 24.275 5.70977 22.9341 5.63336L22.09 1.87595C21.9269 1.16638 21.2187 0.723575 20.5096 0.887115H20.5082L13.9161 2.37685C13.203 2.52029 12.7401 3.21645 12.8853 3.92959C12.8866 3.93495 12.888 3.94032 12.888 3.94568L13.7713 7.64991C12.5729 8.30139 11.4572 9.09363 10.4491 10.0101L7.19264 7.95331C6.5769 7.56457 5.76322 7.74643 5.37314 8.36216L1.80027 14.0311C1.41153 14.6469 1.59339 15.4601 2.20912 15.8502L5.46563 17.9069C5.07778 19.1938 4.8432 20.5214 4.76679 21.8623L1.02278 22.8114C0.31366 22.9749 -0.129598 23.6827 0.0339429 24.3923V24.3936L1.51028 30.9853C1.67382 31.6944 2.38204 32.1376 3.09117 31.9741H3.09251L6.84992 31.1305C7.5014 32.3275 8.29363 33.4428 9.20964 34.4527L7.15332 37.7092C6.80792 38.3258 7.01212 39.1051 7.61445 39.4755L13.2834 43.0484C13.4934 43.1788 13.7356 43.2477 13.9822 43.2463H14.2066C14.5453 43.1686 14.8379 42.9599 15.0238 42.6663L17.0806 39.4098C18.367 39.7972 19.6946 40.0318 21.0355 40.1082L21.2862 41.2159L18.2276 44.2745C17.455 44.1163 16.6695 44.0372 15.8808 44.0372C9.47997 44.0466 4.30029 49.2424 4.30923 55.6428C4.31191 57.7152 4.8709 59.7496 5.92721 61.532C6.30255 62.1558 7.11221 62.3573 7.73599 61.9815C7.88344 61.8931 8.01257 61.776 8.11535 61.6375L12.6377 55.5074C13.6552 54.1772 15.5435 53.8921 16.909 54.8613C18.2526 55.8354 18.569 57.7049 17.6213 59.0668L13.3102 64.9203C12.8947 65.5187 13.0435 66.3399 13.6422 66.7555C13.8111 66.873 14.005 66.9481 14.2066 66.9771C14.808 67.0718 15.4166 67.1205 16.0261 67.1219C19.0976 67.1313 22.0467 65.9119 24.2129 63.734C26.9658 60.9695 28.1495 57.0087 27.364 53.187L54.0215 26.5429C54.7941 26.701 55.5796 26.7801 56.3678 26.7801C62.7687 26.7748 67.9524 21.583 67.947 15.1822C67.9457 13.0753 67.3697 11.0096 66.2821 9.20623C66.0538 8.83 65.653 8.59139 65.2142 8.57307ZM16.9881 36.5622C16.4027 36.3499 15.749 36.5751 15.4193 37.1024L13.5207 40.1216L10.0801 37.9728L11.9782 34.9536C12.3093 34.4263 12.2275 33.7395 11.7807 33.3057C10.5189 32.0782 9.49204 30.6305 8.74806 29.0339C8.48845 28.466 7.8678 28.1586 7.25832 28.2958L3.79135 29.0871L2.89456 25.1318L6.36198 24.3409C6.97503 24.2024 7.40622 23.6514 7.39058 23.0223C7.37316 21.2595 7.67656 19.5075 8.28693 17.8542C8.49917 17.2689 8.27352 16.6151 7.74626 16.2854L4.74042 14.3738L6.90264 10.9328L9.92144 12.8314C10.4465 13.1661 11.1332 13.0896 11.5694 12.6468C12.7968 11.385 14.2445 10.3582 15.8411 9.61463C16.4041 9.351 16.7057 8.72991 16.5663 8.1249L15.7749 4.65748L19.7303 3.76114L20.5212 7.2281C20.6597 7.84116 21.2107 8.27235 21.8398 8.25671C23.6021 8.24331 25.3519 8.54805 27.0078 9.15306C27.5928 9.3653 28.2469 9.1401 28.5767 8.61239L30.4748 5.59359L33.9159 7.75581L32.0173 10.7746C31.6866 11.3019 31.7684 11.9887 32.2152 12.4225C33.4967 13.65 34.5419 15.1026 35.3002 16.7072C35.5638 17.2702 36.1849 17.5723 36.7899 17.4324L40.2573 16.6415L41.3118 21.2819L23.5668 38.9746L23.435 38.4867C23.2965 37.8736 22.7455 37.4424 22.1164 37.4585C20.367 37.4706 18.6298 37.1672 16.9881 36.5622ZM62.6959 21.5196C61.0243 23.2095 58.745 24.159 56.3678 24.1563C55.5533 24.1563 54.7409 24.0455 53.9554 23.8266C53.4858 23.6867 52.9782 23.8185 52.6368 24.1693L24.9511 51.855C24.6003 52.1964 24.4685 52.7044 24.6084 53.1736C25.469 56.2876 24.5936 59.624 22.3143 61.9141C20.872 63.3658 18.9707 64.2742 16.9354 64.4851L19.7567 60.662C21.6208 58.1374 21.0855 54.5802 18.5609 52.716C17.5824 51.9935 16.3987 51.6048 15.182 51.6048C13.3781 51.6101 11.6829 52.4645 10.6069 53.9117L7.42991 58.2228C5.97413 53.498 8.62563 48.4881 13.3491 47.0328C14.9867 46.5279 16.7347 46.5042 18.3853 46.964C18.8545 47.1038 19.3621 46.972 19.7039 46.6212L47.3896 18.8694C47.7386 18.528 47.8722 18.0204 47.7324 17.5513C46.8673 14.4373 47.744 11.099 50.0264 8.81034C51.4433 7.38539 53.3026 6.48368 55.2999 6.25312L52.7552 9.75985C50.891 12.2858 51.429 15.8453 53.9549 17.7094C56.4809 19.5736 60.0404 19.0356 61.905 16.5097L64.884 12.4623C65.914 15.6527 65.069 19.1505 62.6959 21.5196Z" fill="#EF0C0C"/>
</svg>
