<svg width="63" height="63" viewBox="0 0 63 63" fill="none" xmlns="http://www.w3.org/2000/svg">
<g clip-path="url(#clip0_2_155)">
<path d="M40.4632 45.3714C39.8008 44.9733 39.121 44.5732 38.4412 44.1809C38.601 42.8188 38.6014 41.4409 38.4419 40.0815C39.1243 39.6877 39.8038 39.2878 40.463 38.8915C41.5728 38.2246 42.0355 36.8174 41.5389 35.6181C41.5389 35.6181 41.5389 35.6181 41.5388 35.6179L40.0904 32.1212C39.5936 30.9222 38.2721 30.254 37.0151 30.5671C36.268 30.753 35.5048 30.9508 34.7442 31.1548C33.8951 30.0803 32.9207 29.1062 31.8449 28.2565C32.0489 27.4959 32.2467 26.7322 32.4328 25.985C32.7459 24.7285 32.0778 23.4065 30.8788 22.9098L27.3821 21.4614C26.1831 20.9645 24.7756 21.4268 24.1084 22.5369C23.7111 23.1982 23.3108 23.878 22.9181 24.559C21.5563 24.3991 20.1787 24.3988 18.8186 24.5581C18.4246 23.8751 18.0246 23.1955 17.6288 22.5369C16.9614 21.4271 15.5542 20.9647 14.3551 21.4614L10.8584 22.9098C9.65965 23.4064 8.99126 24.7285 9.30441 25.985C9.49083 26.7337 9.68844 27.4971 9.89208 28.2558C8.81776 29.1047 7.84348 30.0794 6.99396 31.1552C6.23156 30.9505 5.46794 30.7529 4.72215 30.5671C3.46535 30.2537 2.14358 30.9225 1.64684 32.1213L0.198699 35.6179C-0.297795 36.817 0.164739 38.2243 1.27438 38.8912C1.93575 39.2887 2.61559 39.6888 3.2964 40.0817C3.13669 41.4433 3.13632 42.821 3.29567 44.1811C2.61423 44.5743 1.93477 44.9743 1.27413 45.3713C0.164492 46.0383 -0.298041 47.4455 0.198576 48.6447L1.64708 52.1414C2.1437 53.3403 3.4651 54.0088 4.72239 53.6955C5.46855 53.5097 6.23193 53.3121 6.99298 53.1078C7.84212 54.1822 8.81653 55.1562 9.89233 56.006C9.68807 56.7675 9.49034 57.5311 9.30441 58.2775C8.99126 59.534 9.6594 60.8561 10.8584 61.3527L14.3552 62.8012C14.6801 62.9357 15.0201 62.9999 15.3565 62.9999C16.2623 62.9999 17.1424 62.5349 17.6293 61.7258C18.0236 61.0696 18.4237 60.39 18.8196 59.7039C20.1811 59.8635 21.5591 59.8637 22.9191 59.7046C23.3102 60.3829 23.7102 61.0623 24.1089 61.7259C24.7761 62.8358 26.1832 63.2981 27.3826 62.8015L30.8793 61.3531C32.078 60.8565 32.7464 59.5343 32.4333 58.2779C32.2483 57.5355 32.0507 56.7722 31.8456 56.0071C32.9197 55.1582 33.8941 54.1836 34.7439 53.1078C35.504 53.3117 36.2677 53.5093 37.0153 53.6956C38.2717 54.009 39.5939 53.3408 40.0906 52.1415L41.539 48.6447C42.0354 47.4456 41.5728 46.0383 40.4632 45.3714ZM37.5435 50.9209C36.8253 50.741 36.0932 50.5508 35.3652 50.3547C34.3346 50.0774 33.247 50.4398 32.5944 51.2784C31.8443 52.2418 30.9762 53.11 30.0143 53.859C29.1767 54.5114 28.8148 55.5987 29.0923 56.6287C29.2896 57.3613 29.4797 58.0929 29.6585 58.8061L26.4442 60.1374C26.0619 59.4995 25.6791 58.8477 25.3049 58.1975C24.7725 57.273 23.7478 56.7606 22.6944 56.891C21.4847 57.0413 20.2568 57.0411 19.0455 56.8904C17.9892 56.7592 16.9653 57.2716 16.433 58.1964C16.0543 58.854 15.6713 59.5061 15.2932 60.1372L12.079 58.8059C12.2588 58.0889 12.449 57.3569 12.6454 56.6278C12.9229 55.5973 12.5602 54.5096 11.7217 53.8568C10.7582 53.1068 9.89012 52.2389 9.14101 51.2771C8.48886 50.4393 7.40162 50.0776 6.37122 50.3549C5.64242 50.5512 4.91066 50.7414 4.19391 50.921L2.86254 47.7069C3.49746 47.3262 4.14949 46.9434 4.80237 46.5675C5.72707 46.0351 6.23993 45.0106 6.10901 43.9571C5.95852 42.7473 5.95889 41.5195 6.10938 40.3081C6.24079 39.2536 5.7283 38.228 4.80311 37.6955C4.15047 37.3197 3.49832 36.9368 2.86242 36.5554L4.19379 33.3413C4.90992 33.5209 5.6418 33.7111 6.37196 33.9076C7.40211 34.1852 8.48984 33.8224 9.14298 32.9839C9.89295 32.0204 10.761 31.1522 11.7227 30.4033C12.5604 29.7511 12.9222 28.6637 12.6448 27.6333C12.4491 26.9068 12.2589 26.1752 12.0786 25.4561L15.2929 24.1249C15.6723 24.7581 16.0553 25.41 16.4321 26.0647C16.9647 26.9894 17.9903 27.503 19.0427 27.3712C20.2519 27.2207 21.4795 27.2207 22.6919 27.3718C23.747 27.5032 24.772 26.9901 25.3043 26.0654C25.68 25.4128 26.063 24.7607 26.444 24.1249L29.6582 25.4561C29.4783 26.1738 29.2881 26.9059 29.0918 27.6344C28.8144 28.6648 29.177 29.7525 30.0155 30.4053C30.9789 31.1553 31.8471 32.0232 32.5962 32.985C33.2483 33.8226 34.3352 34.1844 35.3661 33.9071C36.0944 33.711 36.8261 33.5207 37.5433 33.341L38.8745 36.5551C38.2405 36.9352 37.5886 37.318 36.9347 37.6945C36.01 38.2269 35.497 39.2515 35.6281 40.305C35.7786 41.5142 35.7783 42.7421 35.6275 43.9542C35.4963 45.0089 36.009 46.0342 36.9338 46.5667C37.5855 46.9418 38.2377 47.3247 38.8745 47.7064L37.5435 50.9209Z" fill="#EE0C0C"/>
<path d="M29.748 38.4536C29.748 38.4536 29.748 38.4536 29.7479 38.4535C27.7201 33.5575 22.0875 31.2242 17.1909 33.2521C12.2951 35.2802 9.96162 40.9133 11.9897 45.8092C12.972 48.181 14.8194 50.0281 17.191 51.0106C18.3768 51.5017 19.6228 51.7473 20.8687 51.7473C22.1147 51.7473 23.3607 51.5017 24.5467 51.0106C29.4425 48.9826 31.7759 43.3496 29.748 38.4536ZM23.4675 48.4052C21.7918 49.0993 19.9463 49.0992 18.2701 48.4052C16.5945 47.7111 15.2893 46.4058 14.5951 44.7301C13.1619 41.2707 14.8108 37.2904 18.2702 35.8575C19.1174 35.5066 19.9955 35.3405 20.86 35.3405C23.5261 35.3405 26.0606 36.9204 27.1428 39.5327C28.5757 42.992 26.9268 46.9722 23.4675 48.4052Z" fill="#EE0C0C"/>
<path d="M61.0993 12.4199C60.6125 12.347 60.1125 12.2763 59.609 12.2091C59.3553 11.3653 59.0164 10.5473 58.5983 9.77041C58.9064 9.36744 59.2101 8.96372 59.5036 8.56714C60.1551 7.686 60.0609 6.43634 59.2846 5.6604L57.3394 3.71552C56.5631 2.9391 55.3135 2.84497 54.4326 3.49675C54.0346 3.7912 53.6311 4.09475 53.2293 4.40176C52.4525 3.98364 51.6346 3.64477 50.7906 3.39093C50.7233 2.88742 50.6528 2.38748 50.58 1.90083C50.4179 0.817277 49.4678 0 48.3699 0H45.6191C44.5213 0 43.5711 0.817277 43.4091 1.90071C43.3363 2.38711 43.2657 2.88717 43.1984 3.3908C42.3544 3.64465 41.5364 3.98352 40.7597 4.40163C40.3582 4.09451 39.9544 3.79083 39.5566 3.49662C38.6754 2.84484 37.4258 2.93897 36.6497 3.71528L34.7048 5.66003C33.9284 6.43621 33.834 7.686 34.4858 8.56726C34.779 8.96372 35.0827 9.36756 35.3907 9.77041C34.9728 10.5472 34.6338 11.3651 34.38 12.2091C33.8766 12.2764 33.3766 12.347 32.8899 12.4199C31.8062 12.582 30.989 13.5321 30.989 14.63V17.3807C30.989 18.4786 31.806 19.4287 32.8897 19.5909C33.3764 19.6638 33.8764 19.7345 34.3799 19.8017C34.6337 20.6455 34.9726 21.4634 35.3906 22.2404C35.0828 22.643 34.7792 23.0466 34.4853 23.4436C33.8339 24.3245 33.928 25.5744 34.7044 26.3502L36.6495 28.2954C37.4257 29.0718 38.6753 29.1658 39.5563 28.5141C39.9543 28.2199 40.3579 27.9161 40.7595 27.6093C41.5365 28.0274 42.3545 28.3662 43.1983 28.62C43.2653 29.1234 43.3361 29.6234 43.4089 30.1102C43.5711 31.1937 44.5213 32.011 45.6191 32.011H48.3699C49.4678 32.011 50.4179 31.194 50.58 30.1101C50.6527 29.6233 50.7233 29.1234 50.7906 28.6198C51.6345 28.3662 52.4524 28.0271 53.2293 27.609C53.6308 27.9161 54.0346 28.2198 54.4325 28.5141C55.3134 29.1659 56.5633 29.0718 57.3393 28.2955L59.2844 26.3506C60.0607 25.5744 60.155 24.3246 59.5032 23.4435C59.2096 23.0466 58.906 22.6427 58.5983 22.2405C59.0162 21.4637 59.3552 20.6459 59.609 19.8018C60.1124 19.7345 60.6125 19.6639 61.0991 19.591C62.1828 19.4289 63.0001 18.4788 63.0001 17.3809V14.6302C63 13.5322 62.1828 12.582 61.0993 12.4199ZM60.321 16.9979C59.879 17.062 59.428 17.1243 58.9756 17.1833C58.0807 17.3 57.3481 17.9352 57.1096 18.8012C56.8811 19.6304 56.5495 20.4306 56.1241 21.1794C55.6798 21.9612 55.7483 22.9286 56.2987 23.6443C56.5762 24.0051 56.8514 24.3682 57.1193 24.727L55.7161 26.1304C55.3562 25.8617 54.9931 25.5866 54.633 25.3098C53.9176 24.7591 52.95 24.6911 52.1681 25.1349C51.4192 25.5604 50.619 25.892 49.7903 26.1205C48.9238 26.3592 48.2886 27.0918 48.1722 27.9865C48.1133 28.439 48.0511 28.8901 47.9869 29.332H46.0021C45.938 28.8901 45.8759 28.4391 45.8168 27.987C45.7001 27.092 45.065 26.3593 44.1988 26.1206C43.3698 25.8923 42.5699 25.5607 41.8206 25.1352C41.0388 24.691 40.0712 24.7592 39.3559 25.3098C38.9957 25.5867 38.6329 25.8617 38.2727 26.1304L36.8695 24.727C37.1374 24.3678 37.4125 24.005 37.6903 23.6438C38.2403 22.9283 38.3089 21.9609 37.8647 21.1792C37.4393 20.4303 37.1077 19.63 36.8792 18.8011C36.6406 17.9348 35.9081 17.2998 35.0132 17.183C34.5608 17.1239 34.1097 17.0619 33.6677 16.9976V15.0131C34.1097 14.949 34.5606 14.8867 35.0131 14.8278C35.908 14.711 36.6406 14.0758 36.8791 13.2098C37.1076 12.3807 37.4391 11.5806 37.8646 10.8316C38.3089 10.0499 38.2404 9.08234 37.6902 8.36682C37.4122 8.00555 37.1371 7.64256 36.8695 7.28401L38.2727 5.88066C38.6326 6.14927 38.9956 6.4244 39.3555 6.70113C40.0707 7.25177 41.0382 7.32043 41.8206 6.87611C42.5694 6.45073 43.3697 6.11912 44.1985 5.8905C45.065 5.65179 45.7002 4.91917 45.8166 4.02449C45.8757 3.57205 45.9379 3.12108 46.002 2.6791H47.9868C48.0509 3.12096 48.113 3.57193 48.172 4.02413C48.2887 4.91917 48.9239 5.65179 49.79 5.89038C50.6191 6.11888 51.4194 6.45061 52.1683 6.87598C52.9502 7.32031 53.9178 7.25128 54.6329 6.70126C54.9931 6.4244 55.3559 6.14927 55.7161 5.88066L57.1193 7.28401C56.8517 7.64269 56.5765 8.0058 56.2986 8.36719C55.7484 9.08258 55.68 10.05 56.124 10.8317C56.5494 11.5808 56.881 12.3811 57.1095 13.2099C57.3481 14.0762 58.0806 14.7112 58.9755 14.828C59.4279 14.8871 59.879 14.9492 60.321 15.0134V16.9979Z" fill="#EE0C0C"/>
<path d="M46.9946 10.2959C43.8464 10.2959 41.2851 12.8571 41.2851 16.0054C41.2851 19.1538 43.8463 21.715 46.9946 21.715C50.1429 21.715 52.7041 19.1538 52.7041 16.0054C52.7041 12.8571 50.1429 10.2959 46.9946 10.2959ZM46.9946 19.1769C45.246 19.1769 43.8231 17.7541 43.8231 16.0053C43.8231 14.2564 45.2458 12.8337 46.9946 12.8337C48.7433 12.8337 50.166 14.2565 50.1661 16.0053C50.1661 17.7541 48.7433 19.1769 46.9946 19.1769Z" fill="#EE0C0C"/>
</g>
<defs>
<clipPath id="clip0_2_155">
<rect width="63" height="63" fill="white"/>
</clipPath>
</defs>
</svg>
