<svg width="0" height="0" class="hidden">
  <symbol  xmlns="http://www.w3.org/2000/svg" viewBox="0 0 22 20" id="tg_icon">
    <path d="M8.25891 13.0558L7.91074 18.5866C8.40888 18.5866 8.62463 18.3449 8.88334 18.0547L11.2188 15.534L16.0581 19.5365C16.9457 20.0951 17.571 19.8009 17.8104 18.6143L20.9869 1.80405L20.9878 1.80306C21.2693 0.321314 20.5133 -0.258111 19.6486 0.105392L0.97714 8.17872C-0.297149 8.73735 -0.277855 9.53963 0.76052 9.90313L5.53406 11.58L16.622 3.74438C17.1439 3.35414 17.6183 3.57006 17.228 3.96031L8.25891 13.0558Z" ></path>
  </symbol>
  <symbol  xmlns="http://www.w3.org/2000/svg" viewBox="0 0 20 20" id="viber_icon">
    <path d="M16.075 8.42258C16.095 6.01258 14.0425 3.80341 11.5 3.49757C11.445 3.49072 11.3903 3.48239 11.3358 3.47257C11.208 3.44811 11.0784 3.43417 10.9483 3.43091C10.4266 3.43091 10.2875 3.79757 10.2508 4.01507C10.215 4.22757 10.2491 4.40674 10.3516 4.54591C10.5241 4.78007 10.8283 4.82174 11.0725 4.85508C11.1433 4.86508 11.2108 4.87424 11.2675 4.88674C13.5525 5.39757 14.3216 6.20008 14.6975 8.46591C14.7066 8.52091 14.7108 8.58924 14.7158 8.66174C14.7325 8.93258 14.7658 9.49591 15.3716 9.49591C15.4216 9.49591 15.4766 9.49174 15.5333 9.48341C16.0966 9.39758 16.0791 8.88258 16.0708 8.63508C16.0683 8.56508 16.0658 8.49924 16.0725 8.45508C16.0738 8.44402 16.0743 8.43288 16.0741 8.42174L16.075 8.42258Z" ></path>
    <path d="M10.8 2.61333C10.8683 2.61833 10.9317 2.62333 10.985 2.63083C14.7375 3.20833 16.4633 4.98583 16.9408 8.7675C16.9492 8.83167 16.9508 8.91 16.9517 8.9925C16.9567 9.28833 16.9667 9.90333 17.6267 9.91583H17.6467C17.8542 9.91583 18.0183 9.85333 18.1367 9.73C18.3417 9.51583 18.3283 9.19667 18.3158 8.94C18.3133 8.87667 18.3108 8.8175 18.3108 8.765C18.3592 4.89833 15.0108 1.39083 11.1475 1.26083C11.1308 1.26083 11.1158 1.26083 11.1008 1.26333C11.0856 1.26525 11.0703 1.26609 11.055 1.26583C11.0158 1.26583 10.9692 1.2625 10.9183 1.25917C10.8583 1.255 10.7892 1.25 10.7183 1.25C10.1033 1.25 9.98665 1.6875 9.97165 1.94833C9.93749 2.55083 10.52 2.59333 10.8 2.61333ZM16.76 13.655C16.6795 13.5938 16.5997 13.5316 16.5208 13.4683C16.1108 13.1383 15.675 12.835 15.2542 12.5408L14.9917 12.3575C14.4517 11.9783 13.9667 11.7942 13.5083 11.7942C12.89 11.7942 12.3517 12.1358 11.9067 12.8083C11.71 13.1067 11.4708 13.2517 11.1767 13.2517C10.9723 13.2445 10.7718 13.1943 10.5883 13.1042C8.84665 12.3142 7.60165 11.1025 6.88999 9.50333C6.54582 8.73 6.65749 8.225 7.26249 7.81333C7.60665 7.58 8.24582 7.14583 8.20165 6.31333C8.14999 5.36917 6.06582 2.52667 5.18749 2.20417C4.812 2.0672 4.40042 2.06602 4.02415 2.20083C3.01499 2.54 2.29165 3.13667 1.92915 3.92417C1.57915 4.68583 1.59582 5.58 1.97415 6.51C3.06999 9.19917 4.60999 11.5442 6.55249 13.4792C8.45332 15.3733 10.79 16.9242 13.4967 18.09C13.7408 18.195 13.9967 18.2525 14.1842 18.2942C14.2475 18.3083 14.3025 18.3208 14.3425 18.3317C14.3645 18.3376 14.3872 18.3407 14.41 18.3408H14.4317C15.705 18.3408 17.2342 17.1775 17.7033 15.8517C18.115 14.69 17.3633 14.1158 16.76 13.655ZM11.3633 5.68583C11.1458 5.69083 10.6917 5.7025 10.5325 6.16417C10.4575 6.38083 10.4667 6.5675 10.5592 6.72167C10.6942 6.94667 10.9533 7.01667 11.1883 7.055C12.0425 7.19167 12.4817 7.66333 12.5692 8.54083C12.61 8.94917 12.8858 9.235 13.2383 9.235C13.2651 9.23496 13.2918 9.23329 13.3183 9.23C13.7433 9.18 13.9492 8.8675 13.9308 8.30167C13.9375 7.71167 13.6292 7.04167 13.1033 6.50833C12.5767 5.97333 11.9417 5.67167 11.3633 5.68583Z"></path>
  </symbol>
  <symbol  xmlns="http://www.w3.org/2000/svg" viewBox="0 0 20 20" id="whatsup_icon">
    <path d="M9.90724 0H9.90229C4.44105 0 0 4.44229 0 9.90476C0 12.0714 0.698286 14.0796 1.88562 15.7102L0.651238 19.3898L4.45838 18.1728C6.02457 19.2103 7.89286 19.8095 9.90724 19.8095C15.3685 19.8095 19.8095 15.366 19.8095 9.90476C19.8095 4.44352 15.3685 0 9.90724 0Z"></path>
    <path d="M15.6704 13.9868C15.4314 14.6616 14.483 15.2212 13.7266 15.3847C13.209 15.4948 12.533 15.5828 10.2574 14.6393C7.34666 13.4334 5.47219 10.4756 5.32609 10.2837C5.18619 10.0918 4.1499 8.71751 4.1499 7.29618C4.1499 5.87485 4.87171 5.18275 5.16266 4.88561C5.40162 4.6417 5.79657 4.53027 6.17543 4.53027C6.298 4.53027 6.40819 4.53646 6.50724 4.54142C6.79819 4.5538 6.94428 4.57113 7.13619 5.03046C7.37514 5.60618 7.95705 7.02751 8.02638 7.17361C8.09695 7.3197 8.16752 7.5178 8.06847 7.7097C7.97562 7.9078 7.8939 7.9957 7.74781 8.16408C7.60171 8.33246 7.46305 8.46123 7.31695 8.64199C7.18324 8.79923 7.03219 8.96761 7.20057 9.25856C7.36895 9.54332 7.95086 10.4929 8.80762 11.2556C9.91324 12.2399 10.8096 12.5544 11.1303 12.6881C11.3692 12.7871 11.654 12.7636 11.8286 12.5779C12.0502 12.3389 12.3238 11.9427 12.6024 11.5527C12.8005 11.2729 13.0506 11.2383 13.313 11.3373C13.5805 11.4302 14.9956 12.1297 15.2866 12.2746C15.5775 12.4207 15.7694 12.49 15.84 12.6126C15.9093 12.7351 15.9093 13.3108 15.6704 13.9868Z" fill="#FAFAFA"></path>
  </symbol>
</svg>