<svg width="0" height="0" class="hidden">
  <symbol  xmlns="http://www.w3.org/2000/svg" viewBox="0 0 68 68" id="chain_icon">
    <g clip-path="url(#clip0_0_66)">
      <path d="M42.3584 25.6416C39.7244 23.0077 36.222 21.5571 32.4976 21.5571C28.7726 21.5571 25.2702 23.0077 22.6367 25.6416L9.48883 38.7896C4.86011 43.4178 4.1727 50.5165 7.42401 55.8803L0.972229 62.3321C-0.324249 63.6286 -0.324249 65.7308 0.972229 67.0278C1.62073 67.6758 2.47052 68 3.32031 68C4.17011 68 5.0199 67.6758 5.66788 67.0278L12.1197 60.576C14.3329 61.9171 16.8412 62.5889 19.3496 62.5889C22.9205 62.5889 26.4919 61.2297 29.2104 58.5112L37.3935 50.3282C36.7693 50.3935 36.1385 50.4272 35.5024 50.4272C33.2721 50.4272 31.1046 50.0221 29.0823 49.248L24.5148 53.8155C22.5117 55.8186 19.6262 56.4111 17.0991 55.5966L21.6054 51.0903C22.9024 49.7933 22.9024 47.6911 21.6054 46.3946C20.3089 45.0976 18.2067 45.0976 16.9097 46.3946L12.4034 50.9014C11.5894 48.3738 12.1814 45.4883 14.1845 43.4857L22.824 34.8456L27.3324 30.3378C28.7119 28.9578 30.5464 28.1983 32.4976 28.1983C34.4482 28.1983 36.2827 28.9578 37.6627 30.3378C38.4928 31.1679 39.0967 32.1629 39.4474 33.2488L44.4258 28.2699C43.851 27.3257 43.1599 26.4432 42.3584 25.6416V25.6416Z"  stroke="white" stroke-width="3"></path>
      <path d="M67.0273 0.972748C65.7308 -0.324249 63.6286 -0.324249 62.3316 0.972748L55.8788 7.42557C50.4739 4.1618 43.3264 4.95193 38.6837 9.59467L30.6065 17.6718C31.2307 17.607 31.8615 17.5728 32.4976 17.5728C34.7279 17.5728 36.8954 17.9779 38.9177 18.752L43.4852 14.1845C44.9093 12.7604 46.7801 12.0486 48.6504 12.0486C49.4109 12.0486 50.171 12.1679 50.9014 12.4034L46.3946 16.9102C45.0976 18.2067 45.0976 20.3089 46.3946 21.6059C47.0426 22.2539 47.8924 22.5781 48.7422 22.5781C49.592 22.5781 50.4418 22.2539 51.0898 21.6059L55.5696 17.1261C56.341 19.6837 55.6977 22.6321 53.7263 24.604L40.6676 37.6627C39.2881 39.0422 37.4536 39.8022 35.5024 39.8022C33.5518 39.8022 31.7173 39.0422 30.3373 37.6627C29.5072 36.8326 28.9033 35.8371 28.5526 34.7517L23.5742 39.7301C24.2585 40.8549 25.1083 41.8914 26.1132 42.8087C28.5765 45.0577 31.7878 46.3495 35.1227 46.4377C38.9888 46.5399 42.6401 45.0815 45.3633 42.3584L58.5112 29.2104C63.1394 24.5822 63.8273 17.4835 60.5755 12.1202L67.0273 5.6684C68.3242 4.3714 68.3242 2.26923 67.0273 0.972748V0.972748Z"  stroke="white" stroke-width="3"></path>
    </g>
    <defs>
      <clipPath id="clip0_0_66">
        <rect width="68" height="68" ></rect>
      </clipPath>
    </defs>
  </symbol>
  <symbol  xmlns="http://www.w3.org/2000/svg" viewBox="0 0 21 21" id="mail_icon">
    <path d="M3.9375 3.93785L13.3494 3.93522C13.2339 4.26335 13.1591 4.61379 13.1342 4.97604L13.125 5.25035H3.9375C3.5894 5.25035 3.25556 5.38863 3.00942 5.63477C2.76328 5.88091 2.625 6.21475 2.625 6.56285V6.81354L9.84375 10.4229L14.3955 8.14704C14.7761 8.49747 15.225 8.7731 15.7211 8.95291L10.1364 11.7433C9.99002 11.8166 9.82149 11.8325 9.66394 11.7879L9.54844 11.7433L2.625 8.28222V14.4379C2.625 14.7859 2.76328 15.1198 3.00942 15.3659C3.25556 15.6121 3.5894 15.7504 3.9375 15.7504H15.75C16.0981 15.7504 16.4319 15.6121 16.6781 15.3659C16.9242 15.1198 17.0625 14.7859 17.0625 14.4379V9.18785C17.5232 9.18785 17.9655 9.1091 18.375 8.96341V14.4379C18.375 15.134 18.0984 15.8017 17.6062 16.294C17.1139 16.7863 16.4462 17.0629 15.75 17.0629H3.9375C3.24131 17.0629 2.57363 16.7863 2.08134 16.294C1.58906 15.8017 1.3125 15.134 1.3125 14.4379V6.56285C1.3125 5.86666 1.58906 5.19898 2.08134 4.70669C2.57363 4.21441 3.24131 3.93785 3.9375 3.93785V3.93785ZM17.0625 7.87535C16.9627 7.87535 16.8656 7.8701 16.7685 7.8596L16.5427 7.82416L16.4561 7.80447L16.3354 7.77297C16.1924 7.732 16.0532 7.67887 15.9193 7.61416L15.7001 7.49472C15.346 7.27963 15.0478 6.98376 14.8299 6.63131C14.6121 6.27887 14.4807 5.87985 14.4467 5.46691L14.4375 5.25035L14.4401 5.13222L14.4519 4.97341L14.4808 4.77391L14.5359 4.53504L14.6042 4.32897L14.6856 4.13472L14.7906 3.93654C14.9875 3.59557 15.2586 3.30328 15.5839 3.08132C15.9091 2.85936 16.2801 2.7134 16.6694 2.65428C17.0587 2.59515 17.4563 2.62436 17.8328 2.73974C18.2093 2.85512 18.555 3.05372 18.8443 3.32083C19.1336 3.58794 19.3591 3.91672 19.5041 4.2828C19.6491 4.64889 19.7099 5.04291 19.682 5.43568C19.6541 5.82844 19.5381 6.2099 19.3428 6.55179C19.1474 6.89367 18.8777 7.18723 18.5535 7.41072L18.3632 7.53147L18.1781 7.62729L17.9287 7.72966L17.85 7.75591L17.6492 7.80841L17.4969 7.83991L17.2909 7.86616C17.2149 7.87249 17.1387 7.87556 17.0625 7.87535Z" ></path>
  </symbol>
  <symbol  xmlns="http://www.w3.org/2000/svg" viewBox="0 0 68 68" id="nuts_icon">
    <g clip-path="url(#clip0_0_69)">
      <path d="M14.8965 37.2515C14.8965 30.8964 20.0673 25.7257 26.4224 25.7257C32.7775 25.7257 37.9482 30.8964 37.9482 37.2515C37.9482 43.6066 32.7773 48.7775 26.4224 48.7775C20.0674 48.7775 14.8965 43.6066 14.8965 37.2515ZM18.0841 37.2514C18.0841 41.8496 21.8242 45.5898 26.4224 45.5898C31.0206 45.5898 34.7607 41.8496 34.7607 37.2514C34.7607 32.6532 31.0204 28.9131 26.4224 28.9131C21.8243 28.9131 18.0841 32.6532 18.0841 37.2514Z"  stroke="white" stroke-width="0.8"></path>
      <path d="M28.9934 14.769H29.2243L29.3398 14.569L36.0069 3.02195H57.0277L67.5381 21.2265L57.0278 39.4311H51.3557H51.1247L51.0093 39.6311L39.4028 59.7342H13.4422L0.461881 37.2515L13.4422 14.769H28.9934ZM37.3315 56.5466H37.5624L37.6779 56.3466L48.5869 37.4515L48.7024 37.2514L48.5869 37.0515L37.6779 18.1566L37.5624 17.9566H37.3315H15.5134H15.2825L15.167 18.1566L4.25802 37.0515L4.14255 37.2514L4.25802 37.4515L15.167 56.3466L15.2825 56.5466H15.5134H37.3315ZM41.3288 17.6466L41.1844 17.855L41.3111 18.0745L46.6433 27.3102L46.7696 27.529L47.0215 27.5089C50.2627 27.2507 52.8214 24.5335 52.8214 21.2265C52.8214 17.7501 49.9937 14.9223 46.5172 14.9223C44.4331 14.9223 42.4939 15.9655 41.3288 17.6466ZM48.9996 30.3868L48.4981 30.5229L48.7579 30.9729L51.632 35.9508V36.2437H52.032H54.9564H55.1874L55.3029 36.0437L63.742 21.4267L63.8574 21.2267L63.742 21.0267L55.3029 6.40963L55.1874 6.20963H54.9564H38.0781H37.8471L37.7317 6.40962L33.2514 14.1691L32.9049 14.7691H33.5978H39.395H39.5647L39.6826 14.6472C41.4473 12.8222 43.9092 11.7349 46.5172 11.7349C51.7506 11.7349 56.009 15.9933 56.009 21.2267C56.009 25.6002 53.0335 29.2923 48.9996 30.3868Z"  stroke="white" stroke-width="0.8"></path>
    </g>
    <defs>
      <clipPath id="clip0_0_69">
        <rect width="68" height="68" ></rect>
      </clipPath>
    </defs>
  </symbol>
  <symbol  xmlns="http://www.w3.org/2000/svg" viewBox="0 0 63 63" id="offer_icon">
    <g clip-path="url(#clip0_2_171)">
      <path d="M18.6605 27.333L18.6582 27.3731C18.503 30.0918 20.0259 32.6387 22.539 33.8598L22.5647 33.8724C23.4507 34.2962 24.177 34.9949 24.6351 35.8637L24.6454 35.8826C25.9117 38.2938 28.5308 39.7554 31.3228 39.6088L31.3652 39.6065C32.3778 39.5498 33.3829 39.8109 34.2397 40.3539C36.6039 41.8326 39.605 41.8326 41.9692 40.3539C42.826 39.8109 43.8311 39.5498 44.8437 39.6065L44.8861 39.6088C47.6735 39.7565 50.296 38.2938 51.5652 35.8786L51.5715 35.8654C52.0314 34.9943 52.7593 34.2945 53.6482 33.8701L53.6688 33.8598C56.1819 32.6381 57.7053 30.0918 57.5496 27.3725L57.5473 27.3347C57.4957 26.3771 57.7615 25.4293 58.3044 24.6383C59.8674 22.3589 59.8674 19.3532 58.305 17.0732C57.7626 16.2829 57.4957 15.3356 57.5473 14.378L57.5496 14.3379C57.7053 11.6186 56.1819 9.07229 53.6665 7.85009L53.6436 7.83864C52.7593 7.41597 52.0348 6.72068 51.5761 5.85415L51.5629 5.82838C50.296 3.41721 47.6735 1.9562 44.8861 2.10224L44.8431 2.10453C43.8311 2.16123 42.826 1.90007 41.9698 1.35713H41.9686C39.6044 -0.121646 36.6033 -0.121646 34.2391 1.35713C33.3823 1.8995 32.3772 2.16066 31.3646 2.10396L31.3223 2.10167C28.5342 1.9539 25.9123 3.41664 24.646 5.82723L24.6363 5.84499C24.1775 6.71553 23.4507 7.41482 22.5636 7.83921L22.5395 7.85067C20.0264 9.07171 18.503 11.6186 18.6588 14.3379L18.6611 14.3757C18.7126 15.3333 18.4469 16.2812 17.9039 17.0715C16.3409 19.3515 16.3409 22.3578 17.9039 24.6372C18.4463 25.4276 18.7126 26.3754 18.6605 27.333ZM19.8346 18.4037C20.6725 17.1838 21.0831 15.721 21.0029 14.2434L21.0006 14.2033C20.9182 12.4015 21.9296 10.728 23.5624 9.9623L23.5825 9.95256C24.9221 9.31111 26.0188 8.25501 26.7107 6.94118L26.7221 6.91942C27.5635 5.31694 29.3257 4.3456 31.1974 4.44525L31.2386 4.44697C32.7363 4.53116 34.2225 4.14514 35.4894 3.34219C37.089 2.34164 39.1187 2.34164 40.7184 3.34219C41.9852 4.144 43.4714 4.53059 44.9685 4.44754L45.0098 4.44525C46.8906 4.34674 48.6443 5.31694 49.4833 6.91484L49.4988 6.94405C50.1906 8.25616 51.2863 9.31054 52.6241 9.95142L52.6436 9.96115C54.3022 10.7675 55.3091 12.4325 55.2077 14.2039L55.2054 14.2457C55.1252 15.7233 55.5364 17.1855 56.3743 18.4054C57.3869 19.8824 57.3863 21.8297 56.3732 23.3062C55.5359 24.5267 55.1252 25.9894 55.2054 27.467L55.2077 27.5065C55.3091 29.278 54.3022 30.9435 52.643 31.7504L52.6259 31.7584C51.2851 32.401 50.1872 33.4583 49.4948 34.7744L49.4862 34.7916C48.6443 36.3941 46.8849 37.366 45.0103 37.2658L44.9697 37.2635C43.472 37.1798 41.9852 37.5664 40.7178 38.3688C39.1187 39.3688 37.089 39.3688 35.49 38.3688C34.3376 37.6386 33.0009 37.2514 31.6367 37.2526C31.5044 37.2526 31.3715 37.256 31.2386 37.2635L31.1974 37.2652C29.3504 37.3826 27.603 36.4158 26.7204 34.7887L26.7084 34.7664C26.0177 33.4548 24.9226 32.401 23.5853 31.7602L23.5636 31.7493C21.9044 30.9429 20.8975 29.2774 20.9995 27.5065L21.0018 27.4647C21.0814 25.9871 20.6702 24.5244 19.8328 23.305C18.8208 21.828 18.8214 19.8807 19.8346 18.4048V18.4037Z" ></path>
      <path d="M30.5359 32.9811C31.0852 33.3242 31.8085 33.1564 32.1516 32.6072L46.0464 10.3477C46.2732 9.992 46.2921 9.54184 46.0951 9.169C45.8981 8.79558 45.5155 8.55733 45.094 8.54415C44.6724 8.53098 44.2761 8.74518 44.0562 9.10542L30.1619 31.3649C29.8189 31.9147 29.9861 32.6381 30.5359 32.9811Z" ></path>
      <path d="M31.781 20.9133C34.6372 20.9133 36.9613 18.2633 36.9613 15.0062C36.9613 11.7492 34.6372 9.09973 31.781 9.09973C28.9249 9.09973 26.6013 11.7492 26.6013 15.0062C26.6013 18.2633 28.9249 20.9133 31.781 20.9133ZM31.781 11.4456C33.344 11.4456 34.6154 13.0429 34.6154 15.0062C34.6154 16.9695 33.344 18.5674 31.781 18.5674C30.2186 18.5674 28.9472 16.969 28.9472 15.0062C28.9472 13.0435 30.2186 11.4456 31.781 11.4456Z" ></path>
      <path d="M39.2469 26.7058C39.2469 29.9629 41.5705 32.6123 44.4267 32.6123C47.2829 32.6123 49.607 29.9623 49.607 26.7058C49.607 23.4499 47.2834 20.7993 44.4272 20.7993C41.5705 20.7993 39.2469 23.4482 39.2469 26.7058ZM47.2611 26.7058C47.2611 28.6691 45.9896 30.2664 44.4267 30.2664C42.8643 30.2664 41.5928 28.6691 41.5928 26.7058C41.5928 24.7425 42.8643 23.1452 44.4267 23.1452C45.9896 23.1452 47.2611 24.7414 47.2611 26.7058Z" ></path>
      <path d="M62.8479 46.183C61.2947 43.4265 57.8503 42.3767 55.0239 43.7982L45.8357 48.1394C44.5672 45.7804 42.1337 44.2787 39.4556 44.2031L30.9736 43.9694C29.6305 43.9311 28.3127 43.5903 27.1186 42.974L26.2555 42.5267C21.8363 40.2232 16.569 40.229 12.1545 42.5416L12.2083 40.5863C12.226 39.9386 11.7158 39.3991 11.068 39.3813L1.76697 39.1253C1.11922 39.1076 0.58029 39.6179 0.562535 40.2656L0.00069373 60.6769C-0.0170608 61.3247 0.493236 61.8642 1.14099 61.8819L10.442 62.1379H10.4747C11.1098 62.1374 11.6293 61.6317 11.647 60.9971L11.6734 60.0206L14.0897 58.7268C15.0381 58.2165 16.1475 58.0951 17.1835 58.3883L31.6122 62.4381C31.6374 62.4455 31.6626 62.4512 31.6883 62.457C32.7313 62.6752 33.7942 62.7846 34.8601 62.784C37.1166 62.7851 39.3468 62.2989 41.3977 61.3573C41.4481 61.3344 41.4968 61.3081 41.5432 61.2783L62.4636 47.7454C62.9854 47.4086 63.1538 46.7231 62.8479 46.183ZM2.37807 59.5687L2.87519 41.5033L9.83149 41.6946L9.33379 59.7606L2.37807 59.5687ZM40.3405 59.2612C37.7924 60.4112 34.9466 60.7285 32.2078 60.1684L17.8175 56.1301C16.1985 55.6719 14.4643 55.862 12.9826 56.6587L11.7478 57.3196L12.0789 45.3079C15.9911 42.7054 21.0093 42.438 25.1765 44.6092L26.0396 45.0565C27.5481 45.8354 29.2125 46.2655 30.9094 46.3142L39.3915 46.5478C41.774 46.616 43.7974 48.3124 44.2808 50.6468L31.6465 50.2992C30.9988 50.2814 30.4598 50.7917 30.4421 51.4395C30.4243 52.0872 30.9346 52.6267 31.5824 52.6445L45.5253 53.0282H45.5585C46.1931 53.0276 46.7126 52.5219 46.7303 51.8873C46.7447 51.3776 46.7063 50.8673 46.6169 50.3656L56.0394 45.9127L56.0669 45.8995C57.4036 45.2225 59.0204 45.4488 60.1195 46.4665L40.3405 59.2612Z" ></path>
    </g>
    <defs>
      <clipPath id="clip0_2_171">
        <rect width="63" height="63" ></rect>
      </clipPath>
    </defs>
  </symbol>
  <symbol  xmlns="http://www.w3.org/2000/svg" viewBox="0 0 63 63" id="operator_icon">
    <path d="M55.5334 52.1438C55.3934 43.5818 46.6393 41.0522 40.2472 39.2051C39.5014 38.9897 38.7842 38.7823 38.1121 38.5753V35.0433C39.4189 34.2241 40.564 33.17 41.4877 31.9404H45.3814C47.2868 31.9404 48.837 30.3901 48.837 28.4847V24.3016C49.068 23.7632 49.1963 23.1706 49.1963 22.5483V21.2473C49.1963 20.6257 49.068 20.0335 48.837 19.4954V17.3374C48.837 7.77758 41.0597 0 31.5 0C21.9422 0 14.1665 7.77758 14.1665 17.3375V19.4337C14.1665 19.4502 14.1683 19.4661 14.1689 19.4825C13.9344 20.0241 13.8037 20.6206 13.8037 21.2474V22.5484C13.8037 25.0078 15.803 27.0086 18.2604 27.0086H19.2773C19.9816 30.3861 22.055 33.2666 24.888 35.0427V38.5753C24.2158 38.7823 23.4986 38.9895 22.7528 39.2051C16.3608 41.0522 7.6067 43.5819 7.46668 52.1438C7.46655 52.1505 7.46655 52.1572 7.46655 52.164V61.7695C7.46655 62.4491 8.01756 63 8.69703 63H12.3451C13.0246 63 13.5756 62.4491 13.5756 61.7695C13.5756 61.0899 13.0246 60.5391 12.3451 60.5391H9.92738V52.1742C9.97918 49.187 11.3514 46.9476 14.2456 45.1271C16.1554 43.9258 18.4902 43.0699 20.7917 42.3539L23.7647 48.1462C24.096 48.7918 24.9444 49.0112 25.5474 48.6044L26.873 47.7103L28.011 51.9878L26.0611 60.5389H23.3944C22.715 60.5389 22.1639 61.0898 22.1639 61.7694C22.1639 62.449 22.715 62.9999 23.3944 62.9999H54.3031C54.9825 62.9999 55.5335 62.449 55.5335 61.7694V52.1638C55.5335 52.1572 55.5335 52.1505 55.5334 52.1438ZM39.5641 41.5692C39.6452 41.5926 39.7276 41.6166 39.8093 41.6402L37.6822 45.7886L33.7015 43.1044L37.0743 40.8293C37.8579 41.0759 38.6912 41.317 39.5641 41.5692ZM31.5009 44.5887L33.9682 46.2525L32.7758 50.7346H30.2243L29.0322 46.2539L31.5009 44.5887ZM31.5007 41.6204L27.3488 38.8207V36.2303C28.6483 36.6899 30.045 36.942 31.4999 36.942C32.9547 36.942 34.3517 36.6908 35.651 36.2312V38.8207L31.5007 41.6204ZM41.5246 17.5625C41.5077 17.5518 41.491 17.5411 41.4741 17.5304C38.9493 15.9232 36.7687 14.5351 33.3519 15.5127C33.3202 15.5218 33.2887 15.5321 33.2578 15.5437C32.5334 15.8158 31.8747 16.0694 31.2376 16.3146C27.3465 17.8125 25.2219 18.6305 21.4754 18.5251V17.5398C21.4754 12.012 25.9724 7.51487 31.4999 7.51487C37.0275 7.51487 41.5245 12.012 41.5245 17.5398V17.5625H41.5246ZM46.3761 28.4847C46.3761 29.0333 45.9299 29.4794 45.3814 29.4794H42.9293C43.2755 28.6945 43.5438 27.8678 43.7229 27.0085H44.7398C45.3175 27.0085 45.8691 26.8968 46.3762 26.6956V28.4847H46.3761ZM46.7354 22.5483C46.7354 23.6507 45.8402 24.5476 44.7397 24.5476H43.9844C43.9847 24.5171 43.9857 19.2515 43.9857 19.2515H44.7398C45.8402 19.2515 46.7355 20.1468 46.7355 21.2473V22.5483H46.7354ZM18.2604 24.5477C17.16 24.5477 16.2647 23.6508 16.2647 22.5484V21.2474C16.2647 20.1469 17.1599 19.2516 18.2604 19.2516H19.0145C19.0145 19.2516 19.0155 24.5172 19.0158 24.5477H18.2604ZM19.0376 16.7906H18.2603C17.685 16.7906 17.1356 16.9013 16.6304 17.1006C16.7575 9.00657 23.3784 2.46095 31.5 2.46095C39.624 2.46095 46.2468 9.00731 46.373 17.102C45.8669 16.9018 45.3162 16.7906 44.7397 16.7906H43.9624C43.5736 10.2533 38.1329 5.05392 31.5 5.05392C24.867 5.05392 19.4264 10.2534 19.0376 16.7906ZM21.5494 25.6533C21.5493 25.6521 21.5491 25.6508 21.549 25.6496C21.5023 25.2579 21.4755 24.8602 21.4755 24.4563V20.986C25.6853 21.0886 28.1966 20.1224 32.1217 18.6114C32.7399 18.3734 33.3788 18.1275 34.0749 17.8657C36.3993 17.2169 37.7367 18.0685 40.1526 19.6065C40.5718 19.8734 41.0317 20.1659 41.5246 20.4662V24.4563C41.5246 26.2861 41.0294 28.0014 40.1697 29.4796H31.5C30.8206 29.4796 30.2696 30.0304 30.2696 30.71C30.2696 31.3896 30.8206 31.9405 31.5 31.9405H38.1599C36.3877 33.5193 34.0545 34.4812 31.5 34.4812C26.3777 34.4811 22.1431 30.6184 21.5494 25.6533ZM25.3208 45.7887L23.1914 41.64C23.2728 41.6165 23.355 41.5926 23.436 41.5692C24.3089 41.317 25.1422 41.0758 25.926 40.8292L29.3002 43.1046L25.3208 45.7887ZM28.5853 60.5391L30.2598 53.1956H32.7406L34.4177 60.5391H28.5853ZM53.0726 60.5391H36.9421L34.989 51.9876L36.1276 47.7085L37.4564 48.6046C38.0596 49.0112 38.908 48.7918 39.2392 48.1458L42.2089 42.3541C44.5102 43.0701 46.8449 43.9259 48.7546 45.1271C51.6487 46.9475 53.021 49.187 53.0728 52.1742V60.5391H53.0726Z" ></path>
    <path d="M48.2134 54.3863H42.0122C41.3327 54.3863 40.7817 54.9372 40.7817 55.6168C40.7817 56.2963 41.3327 56.8472 42.0122 56.8472H48.2134C48.8929 56.8472 49.4439 56.2963 49.4439 55.6168C49.4439 54.9372 48.893 54.3863 48.2134 54.3863Z" ></path>
    <path d="M17.8699 60.5389C17.1904 60.5389 16.6394 61.0898 16.6394 61.7694C16.6394 62.449 17.1904 62.9999 17.8699 62.9999H17.8733C18.5528 62.9999 19.1019 62.449 19.1019 61.7694C19.1019 61.0898 18.5493 60.5389 17.8699 60.5389Z" ></path>
  </symbol>
  <symbol  xmlns="http://www.w3.org/2000/svg" viewBox="0 0 16 21" id="phone_icon">
    <path d="M3.34877 1.50552L4.66787 1.10967C5.26834 0.929178 5.91422 0.97257 6.48493 1.23174C7.05565 1.49091 7.51219 1.94815 7.76934 2.5181L8.5902 4.33743C8.81139 4.82754 8.87301 5.37435 8.76641 5.90112C8.65981 6.4279 8.39034 6.9082 7.99581 7.27463L6.56149 8.60706C6.54377 8.62356 6.52922 8.64314 6.51858 8.66486C6.36839 8.97045 6.59646 9.7867 7.31084 11.0202C8.1166 12.4104 8.7388 12.9598 9.02726 12.8751L10.9098 12.3011C11.4253 12.1443 11.9772 12.1521 12.4881 12.3235C12.9989 12.4948 13.4432 12.8212 13.7585 13.2567L14.9251 14.8662C15.2913 15.3716 15.4609 15.9923 15.4025 16.6129C15.344 17.2335 15.0614 17.8118 14.6072 18.2405L13.6036 19.1865C13.2546 19.5159 12.8308 19.7563 12.3683 19.8871C11.9059 20.0179 11.4186 20.0353 10.9479 19.9379C8.15315 19.3583 5.64925 17.1163 3.41472 13.2607C1.1794 9.40272 0.482502 6.11717 1.38044 3.4151C1.53075 2.96272 1.78815 2.55304 2.13088 2.22067C2.47362 1.8883 2.89162 1.64301 3.34956 1.50552H3.34877ZM3.69364 2.6424C3.41886 2.72485 3.16804 2.872 2.96237 3.07139C2.75671 3.27079 2.60223 3.51657 2.51201 3.78799C1.73803 6.11638 2.365 9.07417 4.44696 12.6669C6.52732 16.2573 8.78251 18.2761 11.1903 18.7749C11.4728 18.8334 11.7653 18.8229 12.0429 18.7443C12.3205 18.6657 12.5749 18.5214 12.7843 18.3236L13.7871 17.3783C14.0318 17.1476 14.1841 16.8361 14.2157 16.502C14.2472 16.1678 14.1559 15.8335 13.9588 15.5614L12.7923 13.951C12.6225 13.7166 12.3833 13.5409 12.1083 13.4486C11.8333 13.3563 11.5362 13.352 11.2586 13.4364L9.37133 14.012C8.32718 14.3216 7.34501 13.4546 6.2786 11.6131C5.3751 10.0551 5.06201 8.92929 5.4482 8.14313C5.5229 7.99112 5.62461 7.85416 5.74857 7.73857L7.1829 6.40614C7.39542 6.20883 7.54058 5.95017 7.59802 5.66647C7.65545 5.38277 7.62227 5.08828 7.50314 4.82432L6.68228 3.00579C6.54381 2.69881 6.29794 2.45255 5.99056 2.31298C5.68318 2.1734 5.33532 2.15007 5.01194 2.24734L3.69284 2.64319L3.69364 2.6424Z"  stroke="#F00C0C" stroke-width="0.2"></path>
  </symbol>
  <symbol  xmlns="http://www.w3.org/2000/svg" viewBox="0 0 63 63" id="settings2_icon">
    <g clip-path="url(#clip0_2_155)">
      <path d="M40.4632 45.3714C39.8008 44.9733 39.121 44.5732 38.4412 44.1809C38.601 42.8188 38.6014 41.4409 38.4419 40.0815C39.1243 39.6877 39.8038 39.2878 40.463 38.8915C41.5728 38.2246 42.0355 36.8174 41.5389 35.6181C41.5389 35.6181 41.5389 35.6181 41.5388 35.6179L40.0904 32.1212C39.5936 30.9222 38.2721 30.254 37.0151 30.5671C36.268 30.753 35.5048 30.9508 34.7442 31.1548C33.8951 30.0803 32.9207 29.1062 31.8449 28.2565C32.0489 27.4959 32.2467 26.7322 32.4328 25.985C32.7459 24.7285 32.0778 23.4065 30.8788 22.9098L27.3821 21.4614C26.1831 20.9645 24.7756 21.4268 24.1084 22.5369C23.7111 23.1982 23.3108 23.878 22.9181 24.559C21.5563 24.3991 20.1787 24.3988 18.8186 24.5581C18.4246 23.8751 18.0246 23.1955 17.6288 22.5369C16.9614 21.4271 15.5542 20.9647 14.3551 21.4614L10.8584 22.9098C9.65965 23.4064 8.99126 24.7285 9.30441 25.985C9.49083 26.7337 9.68844 27.4971 9.89208 28.2558C8.81776 29.1047 7.84348 30.0794 6.99396 31.1552C6.23156 30.9505 5.46794 30.7529 4.72215 30.5671C3.46535 30.2537 2.14358 30.9225 1.64684 32.1213L0.198699 35.6179C-0.297795 36.817 0.164739 38.2243 1.27438 38.8912C1.93575 39.2887 2.61559 39.6888 3.2964 40.0817C3.13669 41.4433 3.13632 42.821 3.29567 44.1811C2.61423 44.5743 1.93477 44.9743 1.27413 45.3713C0.164492 46.0383 -0.298041 47.4455 0.198576 48.6447L1.64708 52.1414C2.1437 53.3403 3.4651 54.0088 4.72239 53.6955C5.46855 53.5097 6.23193 53.3121 6.99298 53.1078C7.84212 54.1822 8.81653 55.1562 9.89233 56.006C9.68807 56.7675 9.49034 57.5311 9.30441 58.2775C8.99126 59.534 9.6594 60.8561 10.8584 61.3527L14.3552 62.8012C14.6801 62.9357 15.0201 62.9999 15.3565 62.9999C16.2623 62.9999 17.1424 62.5349 17.6293 61.7258C18.0236 61.0696 18.4237 60.39 18.8196 59.7039C20.1811 59.8635 21.5591 59.8637 22.9191 59.7046C23.3102 60.3829 23.7102 61.0623 24.1089 61.7259C24.7761 62.8358 26.1832 63.2981 27.3826 62.8015L30.8793 61.3531C32.078 60.8565 32.7464 59.5343 32.4333 58.2779C32.2483 57.5355 32.0507 56.7722 31.8456 56.0071C32.9197 55.1582 33.8941 54.1836 34.7439 53.1078C35.504 53.3117 36.2677 53.5093 37.0153 53.6956C38.2717 54.009 39.5939 53.3408 40.0906 52.1415L41.539 48.6447C42.0354 47.4456 41.5728 46.0383 40.4632 45.3714ZM37.5435 50.9209C36.8253 50.741 36.0932 50.5508 35.3652 50.3547C34.3346 50.0774 33.247 50.4398 32.5944 51.2784C31.8443 52.2418 30.9762 53.11 30.0143 53.859C29.1767 54.5114 28.8148 55.5987 29.0923 56.6287C29.2896 57.3613 29.4797 58.0929 29.6585 58.8061L26.4442 60.1374C26.0619 59.4995 25.6791 58.8477 25.3049 58.1975C24.7725 57.273 23.7478 56.7606 22.6944 56.891C21.4847 57.0413 20.2568 57.0411 19.0455 56.8904C17.9892 56.7592 16.9653 57.2716 16.433 58.1964C16.0543 58.854 15.6713 59.5061 15.2932 60.1372L12.079 58.8059C12.2588 58.0889 12.449 57.3569 12.6454 56.6278C12.9229 55.5973 12.5602 54.5096 11.7217 53.8568C10.7582 53.1068 9.89012 52.2389 9.14101 51.2771C8.48886 50.4393 7.40162 50.0776 6.37122 50.3549C5.64242 50.5512 4.91066 50.7414 4.19391 50.921L2.86254 47.7069C3.49746 47.3262 4.14949 46.9434 4.80237 46.5675C5.72707 46.0351 6.23993 45.0106 6.10901 43.9571C5.95852 42.7473 5.95889 41.5195 6.10938 40.3081C6.24079 39.2536 5.7283 38.228 4.80311 37.6955C4.15047 37.3197 3.49832 36.9368 2.86242 36.5554L4.19379 33.3413C4.90992 33.5209 5.6418 33.7111 6.37196 33.9076C7.40211 34.1852 8.48984 33.8224 9.14298 32.9839C9.89295 32.0204 10.761 31.1522 11.7227 30.4033C12.5604 29.7511 12.9222 28.6637 12.6448 27.6333C12.4491 26.9068 12.2589 26.1752 12.0786 25.4561L15.2929 24.1249C15.6723 24.7581 16.0553 25.41 16.4321 26.0647C16.9647 26.9894 17.9903 27.503 19.0427 27.3712C20.2519 27.2207 21.4795 27.2207 22.6919 27.3718C23.747 27.5032 24.772 26.9901 25.3043 26.0654C25.68 25.4128 26.063 24.7607 26.444 24.1249L29.6582 25.4561C29.4783 26.1738 29.2881 26.9059 29.0918 27.6344C28.8144 28.6648 29.177 29.7525 30.0155 30.4053C30.9789 31.1553 31.8471 32.0232 32.5962 32.985C33.2483 33.8226 34.3352 34.1844 35.3661 33.9071C36.0944 33.711 36.8261 33.5207 37.5433 33.341L38.8745 36.5551C38.2405 36.9352 37.5886 37.318 36.9347 37.6945C36.01 38.2269 35.497 39.2515 35.6281 40.305C35.7786 41.5142 35.7783 42.7421 35.6275 43.9542C35.4963 45.0089 36.009 46.0342 36.9338 46.5667C37.5855 46.9418 38.2377 47.3247 38.8745 47.7064L37.5435 50.9209Z" ></path>
      <path d="M29.748 38.4536C29.748 38.4536 29.748 38.4536 29.7479 38.4535C27.7201 33.5575 22.0875 31.2242 17.1909 33.2521C12.2951 35.2802 9.96162 40.9133 11.9897 45.8092C12.972 48.181 14.8194 50.0281 17.191 51.0106C18.3768 51.5017 19.6228 51.7473 20.8687 51.7473C22.1147 51.7473 23.3607 51.5017 24.5467 51.0106C29.4425 48.9826 31.7759 43.3496 29.748 38.4536ZM23.4675 48.4052C21.7918 49.0993 19.9463 49.0992 18.2701 48.4052C16.5945 47.7111 15.2893 46.4058 14.5951 44.7301C13.1619 41.2707 14.8108 37.2904 18.2702 35.8575C19.1174 35.5066 19.9955 35.3405 20.86 35.3405C23.5261 35.3405 26.0606 36.9204 27.1428 39.5327C28.5757 42.992 26.9268 46.9722 23.4675 48.4052Z" ></path>
      <path d="M61.0993 12.4199C60.6125 12.347 60.1125 12.2763 59.609 12.2091C59.3553 11.3653 59.0164 10.5473 58.5983 9.77041C58.9064 9.36744 59.2101 8.96372 59.5036 8.56714C60.1551 7.686 60.0609 6.43634 59.2846 5.6604L57.3394 3.71552C56.5631 2.9391 55.3135 2.84497 54.4326 3.49675C54.0346 3.7912 53.6311 4.09475 53.2293 4.40176C52.4525 3.98364 51.6346 3.64477 50.7906 3.39093C50.7233 2.88742 50.6528 2.38748 50.58 1.90083C50.4179 0.817277 49.4678 0 48.3699 0H45.6191C44.5213 0 43.5711 0.817277 43.4091 1.90071C43.3363 2.38711 43.2657 2.88717 43.1984 3.3908C42.3544 3.64465 41.5364 3.98352 40.7597 4.40163C40.3582 4.09451 39.9544 3.79083 39.5566 3.49662C38.6754 2.84484 37.4258 2.93897 36.6497 3.71528L34.7048 5.66003C33.9284 6.43621 33.834 7.686 34.4858 8.56726C34.779 8.96372 35.0827 9.36756 35.3907 9.77041C34.9728 10.5472 34.6338 11.3651 34.38 12.2091C33.8766 12.2764 33.3766 12.347 32.8899 12.4199C31.8062 12.582 30.989 13.5321 30.989 14.63V17.3807C30.989 18.4786 31.806 19.4287 32.8897 19.5909C33.3764 19.6638 33.8764 19.7345 34.3799 19.8017C34.6337 20.6455 34.9726 21.4634 35.3906 22.2404C35.0828 22.643 34.7792 23.0466 34.4853 23.4436C33.8339 24.3245 33.928 25.5744 34.7044 26.3502L36.6495 28.2954C37.4257 29.0718 38.6753 29.1658 39.5563 28.5141C39.9543 28.2199 40.3579 27.9161 40.7595 27.6093C41.5365 28.0274 42.3545 28.3662 43.1983 28.62C43.2653 29.1234 43.3361 29.6234 43.4089 30.1102C43.5711 31.1937 44.5213 32.011 45.6191 32.011H48.3699C49.4678 32.011 50.4179 31.194 50.58 30.1101C50.6527 29.6233 50.7233 29.1234 50.7906 28.6198C51.6345 28.3662 52.4524 28.0271 53.2293 27.609C53.6308 27.9161 54.0346 28.2198 54.4325 28.5141C55.3134 29.1659 56.5633 29.0718 57.3393 28.2955L59.2844 26.3506C60.0607 25.5744 60.155 24.3246 59.5032 23.4435C59.2096 23.0466 58.906 22.6427 58.5983 22.2405C59.0162 21.4637 59.3552 20.6459 59.609 19.8018C60.1124 19.7345 60.6125 19.6639 61.0991 19.591C62.1828 19.4289 63.0001 18.4788 63.0001 17.3809V14.6302C63 13.5322 62.1828 12.582 61.0993 12.4199ZM60.321 16.9979C59.879 17.062 59.428 17.1243 58.9756 17.1833C58.0807 17.3 57.3481 17.9352 57.1096 18.8012C56.8811 19.6304 56.5495 20.4306 56.1241 21.1794C55.6798 21.9612 55.7483 22.9286 56.2987 23.6443C56.5762 24.0051 56.8514 24.3682 57.1193 24.727L55.7161 26.1304C55.3562 25.8617 54.9931 25.5866 54.633 25.3098C53.9176 24.7591 52.95 24.6911 52.1681 25.1349C51.4192 25.5604 50.619 25.892 49.7903 26.1205C48.9238 26.3592 48.2886 27.0918 48.1722 27.9865C48.1133 28.439 48.0511 28.8901 47.9869 29.332H46.0021C45.938 28.8901 45.8759 28.4391 45.8168 27.987C45.7001 27.092 45.065 26.3593 44.1988 26.1206C43.3698 25.8923 42.5699 25.5607 41.8206 25.1352C41.0388 24.691 40.0712 24.7592 39.3559 25.3098C38.9957 25.5867 38.6329 25.8617 38.2727 26.1304L36.8695 24.727C37.1374 24.3678 37.4125 24.005 37.6903 23.6438C38.2403 22.9283 38.3089 21.9609 37.8647 21.1792C37.4393 20.4303 37.1077 19.63 36.8792 18.8011C36.6406 17.9348 35.9081 17.2998 35.0132 17.183C34.5608 17.1239 34.1097 17.0619 33.6677 16.9976V15.0131C34.1097 14.949 34.5606 14.8867 35.0131 14.8278C35.908 14.711 36.6406 14.0758 36.8791 13.2098C37.1076 12.3807 37.4391 11.5806 37.8646 10.8316C38.3089 10.0499 38.2404 9.08234 37.6902 8.36682C37.4122 8.00555 37.1371 7.64256 36.8695 7.28401L38.2727 5.88066C38.6326 6.14927 38.9956 6.4244 39.3555 6.70113C40.0707 7.25177 41.0382 7.32043 41.8206 6.87611C42.5694 6.45073 43.3697 6.11912 44.1985 5.8905C45.065 5.65179 45.7002 4.91917 45.8166 4.02449C45.8757 3.57205 45.9379 3.12108 46.002 2.6791H47.9868C48.0509 3.12096 48.113 3.57193 48.172 4.02413C48.2887 4.91917 48.9239 5.65179 49.79 5.89038C50.6191 6.11888 51.4194 6.45061 52.1683 6.87598C52.9502 7.32031 53.9178 7.25128 54.6329 6.70126C54.9931 6.4244 55.3559 6.14927 55.7161 5.88066L57.1193 7.28401C56.8517 7.64269 56.5765 8.0058 56.2986 8.36719C55.7484 9.08258 55.68 10.05 56.124 10.8317C56.5494 11.5808 56.881 12.3811 57.1095 13.2099C57.3481 14.0762 58.0806 14.7112 58.9755 14.828C59.4279 14.8871 59.879 14.9492 60.321 15.0134V16.9979Z" ></path>
      <path d="M46.9946 10.2959C43.8464 10.2959 41.2851 12.8571 41.2851 16.0054C41.2851 19.1538 43.8463 21.715 46.9946 21.715C50.1429 21.715 52.7041 19.1538 52.7041 16.0054C52.7041 12.8571 50.1429 10.2959 46.9946 10.2959ZM46.9946 19.1769C45.246 19.1769 43.8231 17.7541 43.8231 16.0053C43.8231 14.2564 45.2458 12.8337 46.9946 12.8337C48.7433 12.8337 50.166 14.2565 50.1661 16.0053C50.1661 17.7541 48.7433 19.1769 46.9946 19.1769Z" ></path>
    </g>
    <defs>
      <clipPath id="clip0_2_155">
        <rect width="63" height="63" ></rect>
      </clipPath>
    </defs>
  </symbol>
  <symbol  xmlns="http://www.w3.org/2000/svg" viewBox="0 0 68 68" id="settings_icon">
    <path d="M31.1606 20.8342C30.019 15.7622 24.9814 12.5772 19.9094 13.7188C14.8379 14.8605 11.6528 19.898 12.7945 24.9696C13.9362 30.0416 18.9737 33.2266 24.0453 32.0849C24.0533 32.0836 24.0609 32.0809 24.0676 32.0796C29.1092 30.9683 32.2956 25.9808 31.1843 20.9392C31.1763 20.9039 31.1682 20.8681 31.1606 20.8342ZM21.9318 29.6801C18.1971 29.7002 15.1529 26.6877 15.1332 22.9526C15.1158 19.7649 17.3281 16.9977 20.442 16.3122C20.9353 16.2001 21.4389 16.142 21.9452 16.1406C25.6789 16.2385 28.6267 19.3444 28.5288 23.0795C28.4497 26.1063 26.3697 28.71 23.4349 29.4562C22.959 29.5657 22.4724 29.6224 21.9845 29.6274L21.9318 29.6801Z" ></path>
    <path d="M65.2142 8.57307C64.7736 8.55475 64.3532 8.75761 64.0936 9.11373L59.7825 14.9538C58.766 16.2764 56.8875 16.5611 55.5242 15.5999C54.1676 14.5981 53.8785 12.6866 54.8781 11.3287L58.9385 5.8179C59.3898 5.24551 59.2919 4.41753 58.72 3.96668C58.535 3.82191 58.3151 3.72807 58.0814 3.69501C51.7614 2.73789 45.8615 7.08601 44.9044 13.4078C44.6988 14.7671 44.7372 16.1527 45.0165 17.4985L43.4611 19.0544L42.4852 14.7563C42.3221 14.0472 41.6139 13.6039 40.9048 13.7675H40.9034L37.146 14.6245C36.4945 13.4261 35.7023 12.3108 34.7859 11.3023L36.8426 8.04581C37.2314 7.43007 37.0495 6.61684 36.4338 6.22631L30.7648 2.65344C30.1491 2.2647 29.3358 2.44656 28.9458 3.06229L26.889 6.33176C25.6026 5.94436 24.275 5.70977 22.9341 5.63336L22.09 1.87595C21.9269 1.16638 21.2187 0.723575 20.5096 0.887115H20.5082L13.9161 2.37685C13.203 2.52029 12.7401 3.21645 12.8853 3.92959C12.8866 3.93495 12.888 3.94032 12.888 3.94568L13.7713 7.64991C12.5729 8.30139 11.4572 9.09363 10.4491 10.0101L7.19264 7.95331C6.5769 7.56457 5.76322 7.74643 5.37314 8.36216L1.80027 14.0311C1.41153 14.6469 1.59339 15.4601 2.20912 15.8502L5.46563 17.9069C5.07778 19.1938 4.8432 20.5214 4.76679 21.8623L1.02278 22.8114C0.31366 22.9749 -0.129598 23.6827 0.0339429 24.3923V24.3936L1.51028 30.9853C1.67382 31.6944 2.38204 32.1376 3.09117 31.9741H3.09251L6.84992 31.1305C7.5014 32.3275 8.29363 33.4428 9.20964 34.4527L7.15332 37.7092C6.80792 38.3258 7.01212 39.1051 7.61445 39.4755L13.2834 43.0484C13.4934 43.1788 13.7356 43.2477 13.9822 43.2463H14.2066C14.5453 43.1686 14.8379 42.9599 15.0238 42.6663L17.0806 39.4098C18.367 39.7972 19.6946 40.0318 21.0355 40.1082L21.2862 41.2159L18.2276 44.2745C17.455 44.1163 16.6695 44.0372 15.8808 44.0372C9.47997 44.0466 4.30029 49.2424 4.30923 55.6428C4.31191 57.7152 4.8709 59.7496 5.92721 61.532C6.30255 62.1558 7.11221 62.3573 7.73599 61.9815C7.88344 61.8931 8.01257 61.776 8.11535 61.6375L12.6377 55.5074C13.6552 54.1772 15.5435 53.8921 16.909 54.8613C18.2526 55.8354 18.569 57.7049 17.6213 59.0668L13.3102 64.9203C12.8947 65.5187 13.0435 66.3399 13.6422 66.7555C13.8111 66.873 14.005 66.9481 14.2066 66.9771C14.808 67.0718 15.4166 67.1205 16.0261 67.1219C19.0976 67.1313 22.0467 65.9119 24.2129 63.734C26.9658 60.9695 28.1495 57.0087 27.364 53.187L54.0215 26.5429C54.7941 26.701 55.5796 26.7801 56.3678 26.7801C62.7687 26.7748 67.9524 21.583 67.947 15.1822C67.9457 13.0753 67.3697 11.0096 66.2821 9.20623C66.0538 8.83 65.653 8.59139 65.2142 8.57307ZM16.9881 36.5622C16.4027 36.3499 15.749 36.5751 15.4193 37.1024L13.5207 40.1216L10.0801 37.9728L11.9782 34.9536C12.3093 34.4263 12.2275 33.7395 11.7807 33.3057C10.5189 32.0782 9.49204 30.6305 8.74806 29.0339C8.48845 28.466 7.8678 28.1586 7.25832 28.2958L3.79135 29.0871L2.89456 25.1318L6.36198 24.3409C6.97503 24.2024 7.40622 23.6514 7.39058 23.0223C7.37316 21.2595 7.67656 19.5075 8.28693 17.8542C8.49917 17.2689 8.27352 16.6151 7.74626 16.2854L4.74042 14.3738L6.90264 10.9328L9.92144 12.8314C10.4465 13.1661 11.1332 13.0896 11.5694 12.6468C12.7968 11.385 14.2445 10.3582 15.8411 9.61463C16.4041 9.351 16.7057 8.72991 16.5663 8.1249L15.7749 4.65748L19.7303 3.76114L20.5212 7.2281C20.6597 7.84116 21.2107 8.27235 21.8398 8.25671C23.6021 8.24331 25.3519 8.54805 27.0078 9.15306C27.5928 9.3653 28.2469 9.1401 28.5767 8.61239L30.4748 5.59359L33.9159 7.75581L32.0173 10.7746C31.6866 11.3019 31.7684 11.9887 32.2152 12.4225C33.4967 13.65 34.5419 15.1026 35.3002 16.7072C35.5638 17.2702 36.1849 17.5723 36.7899 17.4324L40.2573 16.6415L41.3118 21.2819L23.5668 38.9746L23.435 38.4867C23.2965 37.8736 22.7455 37.4424 22.1164 37.4585C20.367 37.4706 18.6298 37.1672 16.9881 36.5622ZM62.6959 21.5196C61.0243 23.2095 58.745 24.159 56.3678 24.1563C55.5533 24.1563 54.7409 24.0455 53.9554 23.8266C53.4858 23.6867 52.9782 23.8185 52.6368 24.1693L24.9511 51.855C24.6003 52.1964 24.4685 52.7044 24.6084 53.1736C25.469 56.2876 24.5936 59.624 22.3143 61.9141C20.872 63.3658 18.9707 64.2742 16.9354 64.4851L19.7567 60.662C21.6208 58.1374 21.0855 54.5802 18.5609 52.716C17.5824 51.9935 16.3987 51.6048 15.182 51.6048C13.3781 51.6101 11.6829 52.4645 10.6069 53.9117L7.42991 58.2228C5.97413 53.498 8.62563 48.4881 13.3491 47.0328C14.9867 46.5279 16.7347 46.5042 18.3853 46.964C18.8545 47.1038 19.3621 46.972 19.7039 46.6212L47.3896 18.8694C47.7386 18.528 47.8722 18.0204 47.7324 17.5513C46.8673 14.4373 47.744 11.099 50.0264 8.81034C51.4433 7.38539 53.3026 6.48368 55.2999 6.25312L52.7552 9.75985C50.891 12.2858 51.429 15.8453 53.9549 17.7094C56.4809 19.5736 60.0404 19.0356 61.905 16.5097L64.884 12.4623C65.914 15.6527 65.069 19.1505 62.6959 21.5196Z" ></path>
  </symbol>
  <symbol  xmlns="http://www.w3.org/2000/svg" viewBox="0 0 68 68" id="wood_icon">
    <path d="M7.31403 42.1849C7.06714 41.9379 6.72448 41.7971 6.37518 41.7971C6.02589 41.7971 5.68323 41.9379 5.4362 42.1849C5.18917 42.4333 5.04706 42.7746 5.04706 43.1252C5.04706 43.4745 5.18903 43.8159 5.4362 44.0642C5.68336 44.3113 6.02602 44.4534 6.37518 44.4534C6.72448 44.4534 7.06714 44.3113 7.31403 44.0642C7.56107 43.8159 7.70331 43.4745 7.70331 43.1252C7.70331 42.7746 7.5612 42.4333 7.31403 42.1849Z" ></path>
    <path d="M58.9687 0H9.03143C6.83445 0 5.04706 1.78739 5.04706 3.98438V29.8183C5.04706 29.8205 5.04706 29.8228 5.04706 29.825V38.4713C5.04706 39.2048 5.64179 39.7994 6.37518 39.7994C7.10857 39.7994 7.70331 39.2048 7.70331 38.4713V32.3367L7.71792 32.3466C13.072 35.9887 17.0922 41.1233 19.3435 47.1952C22.2731 55.0957 27.9882 61.518 35.353 65.3434H20.1012L18.9754 64.1474C16.2479 61.2502 14.7458 57.4635 14.7458 53.4845C14.7458 52.751 14.1511 52.1564 13.4177 52.1564C12.6843 52.1564 12.0896 52.751 12.0896 53.4845C12.0896 57.862 13.6428 62.0408 16.4798 65.3432H9.03143C8.2991 65.3432 7.70331 64.7474 7.70331 64.0151V48.2492C7.70331 47.5157 7.10857 46.9211 6.37518 46.9211C5.64179 46.9211 5.04706 47.5157 5.04706 48.2492V64.0152C5.04706 66.2122 6.83445 67.9996 9.03143 67.9996H42.0958C42.0988 67.9996 42.1019 68 42.1049 68C42.1082 68 42.1116 67.9996 42.115 67.9996H58.9687C61.1656 67.9996 62.953 66.2122 62.953 64.0152V3.98438C62.953 1.78739 61.1656 0 58.9687 0ZM60.2969 16.3495C58.9701 15.5968 57.4851 15.1963 55.9403 15.1963C53.4163 15.1963 51.0498 16.2609 49.2768 18.194C45.6883 22.1066 45.6883 28.4731 49.2768 32.3858C51.0498 34.3189 53.4163 35.3836 55.9403 35.3836C57.485 35.3836 58.9701 34.9829 60.2969 34.2304V47.0338C59.2574 48.4234 58.1233 49.6687 56.9196 50.735C56.3706 51.2214 56.3197 52.0608 56.8062 52.6098C57.0688 52.9061 57.434 53.0573 57.8008 53.0573C58.1139 53.0573 58.4282 52.9472 58.681 52.7232C59.2343 52.2332 59.7734 51.7096 60.2969 51.1567V64.0152C60.2968 64.7476 59.701 65.3434 58.9687 65.3434H42.3336L40.53 64.7036C31.8502 61.6249 25.036 54.9065 21.8342 46.2716C19.3899 39.6792 15.025 34.1047 9.21192 30.1502L7.70344 29.1241V3.98438C7.70344 3.25205 8.29924 2.65625 9.03157 2.65625H11.0579C12.6579 6.06794 13.503 9.8418 13.503 13.6093V17.1381C13.503 17.8716 14.0977 18.4662 14.8311 18.4662C15.5645 18.4662 16.1592 17.8716 16.1592 17.1381V13.6093C16.1592 9.86491 15.4018 6.11482 13.9613 2.65625H28.0503C23.6945 8.77346 21.2976 16.8169 21.2976 25.3503C21.2976 34.0057 23.7621 42.1584 28.2368 48.307C32.8041 54.5826 38.9169 58.0388 45.4491 58.0388C46.1825 58.0388 46.7773 57.4442 46.7773 56.7107C46.7773 55.9771 46.1825 55.3825 45.4491 55.3825C39.7887 55.3825 34.4389 52.3146 30.3845 46.7439C21.7991 34.9475 21.7991 15.753 30.3846 3.95648C30.7102 3.50917 31.048 3.07395 31.3925 2.65612H58.9688C59.7011 2.65612 60.2969 3.25191 60.2969 3.98424V16.3495ZM60.2968 19.6371V30.9432C59.0818 32.0964 57.5527 32.7277 55.9401 32.7277C54.1695 32.7277 52.4982 31.9688 51.2343 30.5907C48.5538 27.668 48.5538 22.9124 51.2343 19.9896C52.4982 18.6115 54.1695 17.8527 55.9401 17.8527C57.5527 17.8528 59.0818 18.4839 60.2968 19.6371Z" ></path>
    <path d="M46.5659 6.79755C46.3149 6.10838 45.5524 5.75298 44.8635 6.00399C42.1708 6.98468 39.6918 8.73382 37.6947 11.0622C37.2171 11.6189 37.2814 12.4574 37.8383 12.9349C38.0888 13.1498 38.3962 13.2549 38.7022 13.2549C39.0764 13.2549 39.4484 13.0976 39.7111 12.7914C41.4116 10.8086 43.5075 9.32457 45.7724 8.49994C46.4615 8.24892 46.8168 7.48671 46.5659 6.79755Z" ></path>
    <path d="M52.3244 44.0879C52.2825 43.3556 51.6598 42.7971 50.9223 42.838L50.8985 42.8394C50.1662 42.8813 49.6066 43.509 49.6487 44.2413C49.6893 44.9478 50.2748 45.4935 50.9735 45.4935C50.999 45.4935 51.0249 45.4927 51.0508 45.4912L51.0746 45.4899C51.8069 45.4479 52.3665 44.8203 52.3244 44.0879Z" ></path>
    <path d="M46.5548 42.3378C43.9795 41.5795 41.6129 40.0064 39.711 37.7889C35.3965 32.7582 34.0956 25.232 36.3969 18.6148C36.6377 17.9221 36.2716 17.1651 35.5788 16.9241C34.885 16.6832 34.129 17.0495 33.8881 17.7424C31.2821 25.2357 32.7763 33.7831 37.6948 39.5182C39.9316 42.1262 42.7358 43.9823 45.8046 44.8861C45.9298 44.923 46.0561 44.9405 46.1803 44.9405C46.7542 44.9405 47.2836 44.5656 47.4538 43.9872C47.6609 43.2834 47.2585 42.545 46.5548 42.3378Z" ></path>
  </symbol>
</svg>