<svg width="0" height="0" class="hidden">
  <symbol  xmlns="http://www.w3.org/2000/svg" viewBox="0 0 68 68" id="settings_icon">
    <path d="M31.1606 20.8342C30.019 15.7622 24.9814 12.5772 19.9094 13.7188C14.8379 14.8605 11.6528 19.898 12.7945 24.9696C13.9362 30.0416 18.9737 33.2266 24.0453 32.0849C24.0533 32.0836 24.0609 32.0809 24.0676 32.0796C29.1092 30.9683 32.2956 25.9808 31.1843 20.9392C31.1763 20.9039 31.1682 20.8681 31.1606 20.8342ZM21.9318 29.6801C18.1971 29.7002 15.1529 26.6877 15.1332 22.9526C15.1158 19.7649 17.3281 16.9977 20.442 16.3122C20.9353 16.2001 21.4389 16.142 21.9452 16.1406C25.6789 16.2385 28.6267 19.3444 28.5288 23.0795C28.4497 26.1063 26.3697 28.71 23.4349 29.4562C22.959 29.5657 22.4724 29.6224 21.9845 29.6274L21.9318 29.6801Z" ></path>
    <path d="M65.2142 8.57307C64.7736 8.55475 64.3532 8.75761 64.0936 9.11373L59.7825 14.9538C58.766 16.2764 56.8875 16.5611 55.5242 15.5999C54.1676 14.5981 53.8785 12.6866 54.8781 11.3287L58.9385 5.8179C59.3898 5.24551 59.2919 4.41753 58.72 3.96668C58.535 3.82191 58.3151 3.72807 58.0814 3.69501C51.7614 2.73789 45.8615 7.08601 44.9044 13.4078C44.6988 14.7671 44.7372 16.1527 45.0165 17.4985L43.4611 19.0544L42.4852 14.7563C42.3221 14.0472 41.6139 13.6039 40.9048 13.7675H40.9034L37.146 14.6245C36.4945 13.4261 35.7023 12.3108 34.7859 11.3023L36.8426 8.04581C37.2314 7.43007 37.0495 6.61684 36.4338 6.22631L30.7648 2.65344C30.1491 2.2647 29.3358 2.44656 28.9458 3.06229L26.889 6.33176C25.6026 5.94436 24.275 5.70977 22.9341 5.63336L22.09 1.87595C21.9269 1.16638 21.2187 0.723575 20.5096 0.887115H20.5082L13.9161 2.37685C13.203 2.52029 12.7401 3.21645 12.8853 3.92959C12.8866 3.93495 12.888 3.94032 12.888 3.94568L13.7713 7.64991C12.5729 8.30139 11.4572 9.09363 10.4491 10.0101L7.19264 7.95331C6.5769 7.56457 5.76322 7.74643 5.37314 8.36216L1.80027 14.0311C1.41153 14.6469 1.59339 15.4601 2.20912 15.8502L5.46563 17.9069C5.07778 19.1938 4.8432 20.5214 4.76679 21.8623L1.02278 22.8114C0.31366 22.9749 -0.129598 23.6827 0.0339429 24.3923V24.3936L1.51028 30.9853C1.67382 31.6944 2.38204 32.1376 3.09117 31.9741H3.09251L6.84992 31.1305C7.5014 32.3275 8.29363 33.4428 9.20964 34.4527L7.15332 37.7092C6.80792 38.3258 7.01212 39.1051 7.61445 39.4755L13.2834 43.0484C13.4934 43.1788 13.7356 43.2477 13.9822 43.2463H14.2066C14.5453 43.1686 14.8379 42.9599 15.0238 42.6663L17.0806 39.4098C18.367 39.7972 19.6946 40.0318 21.0355 40.1082L21.2862 41.2159L18.2276 44.2745C17.455 44.1163 16.6695 44.0372 15.8808 44.0372C9.47997 44.0466 4.30029 49.2424 4.30923 55.6428C4.31191 57.7152 4.8709 59.7496 5.92721 61.532C6.30255 62.1558 7.11221 62.3573 7.73599 61.9815C7.88344 61.8931 8.01257 61.776 8.11535 61.6375L12.6377 55.5074C13.6552 54.1772 15.5435 53.8921 16.909 54.8613C18.2526 55.8354 18.569 57.7049 17.6213 59.0668L13.3102 64.9203C12.8947 65.5187 13.0435 66.3399 13.6422 66.7555C13.8111 66.873 14.005 66.9481 14.2066 66.9771C14.808 67.0718 15.4166 67.1205 16.0261 67.1219C19.0976 67.1313 22.0467 65.9119 24.2129 63.734C26.9658 60.9695 28.1495 57.0087 27.364 53.187L54.0215 26.5429C54.7941 26.701 55.5796 26.7801 56.3678 26.7801C62.7687 26.7748 67.9524 21.583 67.947 15.1822C67.9457 13.0753 67.3697 11.0096 66.2821 9.20623C66.0538 8.83 65.653 8.59139 65.2142 8.57307ZM16.9881 36.5622C16.4027 36.3499 15.749 36.5751 15.4193 37.1024L13.5207 40.1216L10.0801 37.9728L11.9782 34.9536C12.3093 34.4263 12.2275 33.7395 11.7807 33.3057C10.5189 32.0782 9.49204 30.6305 8.74806 29.0339C8.48845 28.466 7.8678 28.1586 7.25832 28.2958L3.79135 29.0871L2.89456 25.1318L6.36198 24.3409C6.97503 24.2024 7.40622 23.6514 7.39058 23.0223C7.37316 21.2595 7.67656 19.5075 8.28693 17.8542C8.49917 17.2689 8.27352 16.6151 7.74626 16.2854L4.74042 14.3738L6.90264 10.9328L9.92144 12.8314C10.4465 13.1661 11.1332 13.0896 11.5694 12.6468C12.7968 11.385 14.2445 10.3582 15.8411 9.61463C16.4041 9.351 16.7057 8.72991 16.5663 8.1249L15.7749 4.65748L19.7303 3.76114L20.5212 7.2281C20.6597 7.84116 21.2107 8.27235 21.8398 8.25671C23.6021 8.24331 25.3519 8.54805 27.0078 9.15306C27.5928 9.3653 28.2469 9.1401 28.5767 8.61239L30.4748 5.59359L33.9159 7.75581L32.0173 10.7746C31.6866 11.3019 31.7684 11.9887 32.2152 12.4225C33.4967 13.65 34.5419 15.1026 35.3002 16.7072C35.5638 17.2702 36.1849 17.5723 36.7899 17.4324L40.2573 16.6415L41.3118 21.2819L23.5668 38.9746L23.435 38.4867C23.2965 37.8736 22.7455 37.4424 22.1164 37.4585C20.367 37.4706 18.6298 37.1672 16.9881 36.5622ZM62.6959 21.5196C61.0243 23.2095 58.745 24.159 56.3678 24.1563C55.5533 24.1563 54.7409 24.0455 53.9554 23.8266C53.4858 23.6867 52.9782 23.8185 52.6368 24.1693L24.9511 51.855C24.6003 52.1964 24.4685 52.7044 24.6084 53.1736C25.469 56.2876 24.5936 59.624 22.3143 61.9141C20.872 63.3658 18.9707 64.2742 16.9354 64.4851L19.7567 60.662C21.6208 58.1374 21.0855 54.5802 18.5609 52.716C17.5824 51.9935 16.3987 51.6048 15.182 51.6048C13.3781 51.6101 11.6829 52.4645 10.6069 53.9117L7.42991 58.2228C5.97413 53.498 8.62563 48.4881 13.3491 47.0328C14.9867 46.5279 16.7347 46.5042 18.3853 46.964C18.8545 47.1038 19.3621 46.972 19.7039 46.6212L47.3896 18.8694C47.7386 18.528 47.8722 18.0204 47.7324 17.5513C46.8673 14.4373 47.744 11.099 50.0264 8.81034C51.4433 7.38539 53.3026 6.48368 55.2999 6.25312L52.7552 9.75985C50.891 12.2858 51.429 15.8453 53.9549 17.7094C56.4809 19.5736 60.0404 19.0356 61.905 16.5097L64.884 12.4623C65.914 15.6527 65.069 19.1505 62.6959 21.5196Z" ></path>
  </symbol>
  <symbol  xmlns="http://www.w3.org/2000/svg" viewBox="0 0 68 68" id="nuts_icon">
    <g clip-path="url(#clip0_0_69)">
      <path d="M14.8965 37.2515C14.8965 30.8964 20.0673 25.7257 26.4224 25.7257C32.7775 25.7257 37.9482 30.8964 37.9482 37.2515C37.9482 43.6066 32.7773 48.7775 26.4224 48.7775C20.0674 48.7775 14.8965 43.6066 14.8965 37.2515ZM18.0841 37.2514C18.0841 41.8496 21.8242 45.5898 26.4224 45.5898C31.0206 45.5898 34.7607 41.8496 34.7607 37.2514C34.7607 32.6532 31.0204 28.9131 26.4224 28.9131C21.8243 28.9131 18.0841 32.6532 18.0841 37.2514Z"  stroke="white" stroke-width="0.8"></path>
      <path d="M28.9934 14.769H29.2243L29.3398 14.569L36.0069 3.02195H57.0277L67.5381 21.2265L57.0278 39.4311H51.3557H51.1247L51.0093 39.6311L39.4028 59.7342H13.4422L0.461881 37.2515L13.4422 14.769H28.9934ZM37.3315 56.5466H37.5624L37.6779 56.3466L48.5869 37.4515L48.7024 37.2514L48.5869 37.0515L37.6779 18.1566L37.5624 17.9566H37.3315H15.5134H15.2825L15.167 18.1566L4.25802 37.0515L4.14255 37.2514L4.25802 37.4515L15.167 56.3466L15.2825 56.5466H15.5134H37.3315ZM41.3288 17.6466L41.1844 17.855L41.3111 18.0745L46.6433 27.3102L46.7696 27.529L47.0215 27.5089C50.2627 27.2507 52.8214 24.5335 52.8214 21.2265C52.8214 17.7501 49.9937 14.9223 46.5172 14.9223C44.4331 14.9223 42.4939 15.9655 41.3288 17.6466ZM48.9996 30.3868L48.4981 30.5229L48.7579 30.9729L51.632 35.9508V36.2437H52.032H54.9564H55.1874L55.3029 36.0437L63.742 21.4267L63.8574 21.2267L63.742 21.0267L55.3029 6.40963L55.1874 6.20963H54.9564H38.0781H37.8471L37.7317 6.40962L33.2514 14.1691L32.9049 14.7691H33.5978H39.395H39.5647L39.6826 14.6472C41.4473 12.8222 43.9092 11.7349 46.5172 11.7349C51.7506 11.7349 56.009 15.9933 56.009 21.2267C56.009 25.6002 53.0335 29.2923 48.9996 30.3868Z"  stroke="white" stroke-width="0.8"></path>
    </g>
    <defs>
      <clipPath id="clip0_0_69">
        <rect width="68" height="68" ></rect>
      </clipPath>
    </defs>
  </symbol>
  <symbol  xmlns="http://www.w3.org/2000/svg" viewBox="0 0 68 68" id="wood_icon">
    <path d="M7.31403 42.1849C7.06714 41.9379 6.72448 41.7971 6.37518 41.7971C6.02589 41.7971 5.68323 41.9379 5.4362 42.1849C5.18917 42.4333 5.04706 42.7746 5.04706 43.1252C5.04706 43.4745 5.18903 43.8159 5.4362 44.0642C5.68336 44.3113 6.02602 44.4534 6.37518 44.4534C6.72448 44.4534 7.06714 44.3113 7.31403 44.0642C7.56107 43.8159 7.70331 43.4745 7.70331 43.1252C7.70331 42.7746 7.5612 42.4333 7.31403 42.1849Z" ></path>
    <path d="M58.9687 0H9.03143C6.83445 0 5.04706 1.78739 5.04706 3.98438V29.8183C5.04706 29.8205 5.04706 29.8228 5.04706 29.825V38.4713C5.04706 39.2048 5.64179 39.7994 6.37518 39.7994C7.10857 39.7994 7.70331 39.2048 7.70331 38.4713V32.3367L7.71792 32.3466C13.072 35.9887 17.0922 41.1233 19.3435 47.1952C22.2731 55.0957 27.9882 61.518 35.353 65.3434H20.1012L18.9754 64.1474C16.2479 61.2502 14.7458 57.4635 14.7458 53.4845C14.7458 52.751 14.1511 52.1564 13.4177 52.1564C12.6843 52.1564 12.0896 52.751 12.0896 53.4845C12.0896 57.862 13.6428 62.0408 16.4798 65.3432H9.03143C8.2991 65.3432 7.70331 64.7474 7.70331 64.0151V48.2492C7.70331 47.5157 7.10857 46.9211 6.37518 46.9211C5.64179 46.9211 5.04706 47.5157 5.04706 48.2492V64.0152C5.04706 66.2122 6.83445 67.9996 9.03143 67.9996H42.0958C42.0988 67.9996 42.1019 68 42.1049 68C42.1082 68 42.1116 67.9996 42.115 67.9996H58.9687C61.1656 67.9996 62.953 66.2122 62.953 64.0152V3.98438C62.953 1.78739 61.1656 0 58.9687 0ZM60.2969 16.3495C58.9701 15.5968 57.4851 15.1963 55.9403 15.1963C53.4163 15.1963 51.0498 16.2609 49.2768 18.194C45.6883 22.1066 45.6883 28.4731 49.2768 32.3858C51.0498 34.3189 53.4163 35.3836 55.9403 35.3836C57.485 35.3836 58.9701 34.9829 60.2969 34.2304V47.0338C59.2574 48.4234 58.1233 49.6687 56.9196 50.735C56.3706 51.2214 56.3197 52.0608 56.8062 52.6098C57.0688 52.9061 57.434 53.0573 57.8008 53.0573C58.1139 53.0573 58.4282 52.9472 58.681 52.7232C59.2343 52.2332 59.7734 51.7096 60.2969 51.1567V64.0152C60.2968 64.7476 59.701 65.3434 58.9687 65.3434H42.3336L40.53 64.7036C31.8502 61.6249 25.036 54.9065 21.8342 46.2716C19.3899 39.6792 15.025 34.1047 9.21192 30.1502L7.70344 29.1241V3.98438C7.70344 3.25205 8.29924 2.65625 9.03157 2.65625H11.0579C12.6579 6.06794 13.503 9.8418 13.503 13.6093V17.1381C13.503 17.8716 14.0977 18.4662 14.8311 18.4662C15.5645 18.4662 16.1592 17.8716 16.1592 17.1381V13.6093C16.1592 9.86491 15.4018 6.11482 13.9613 2.65625H28.0503C23.6945 8.77346 21.2976 16.8169 21.2976 25.3503C21.2976 34.0057 23.7621 42.1584 28.2368 48.307C32.8041 54.5826 38.9169 58.0388 45.4491 58.0388C46.1825 58.0388 46.7773 57.4442 46.7773 56.7107C46.7773 55.9771 46.1825 55.3825 45.4491 55.3825C39.7887 55.3825 34.4389 52.3146 30.3845 46.7439C21.7991 34.9475 21.7991 15.753 30.3846 3.95648C30.7102 3.50917 31.048 3.07395 31.3925 2.65612H58.9688C59.7011 2.65612 60.2969 3.25191 60.2969 3.98424V16.3495ZM60.2968 19.6371V30.9432C59.0818 32.0964 57.5527 32.7277 55.9401 32.7277C54.1695 32.7277 52.4982 31.9688 51.2343 30.5907C48.5538 27.668 48.5538 22.9124 51.2343 19.9896C52.4982 18.6115 54.1695 17.8527 55.9401 17.8527C57.5527 17.8528 59.0818 18.4839 60.2968 19.6371Z" ></path>
    <path d="M46.5659 6.79755C46.3149 6.10838 45.5524 5.75298 44.8635 6.00399C42.1708 6.98468 39.6918 8.73382 37.6947 11.0622C37.2171 11.6189 37.2814 12.4574 37.8383 12.9349C38.0888 13.1498 38.3962 13.2549 38.7022 13.2549C39.0764 13.2549 39.4484 13.0976 39.7111 12.7914C41.4116 10.8086 43.5075 9.32457 45.7724 8.49994C46.4615 8.24892 46.8168 7.48671 46.5659 6.79755Z" ></path>
    <path d="M52.3244 44.0879C52.2825 43.3556 51.6598 42.7971 50.9223 42.838L50.8985 42.8394C50.1662 42.8813 49.6066 43.509 49.6487 44.2413C49.6893 44.9478 50.2748 45.4935 50.9735 45.4935C50.999 45.4935 51.0249 45.4927 51.0508 45.4912L51.0746 45.4899C51.8069 45.4479 52.3665 44.8203 52.3244 44.0879Z" ></path>
    <path d="M46.5548 42.3378C43.9795 41.5795 41.6129 40.0064 39.711 37.7889C35.3965 32.7582 34.0956 25.232 36.3969 18.6148C36.6377 17.9221 36.2716 17.1651 35.5788 16.9241C34.885 16.6832 34.129 17.0495 33.8881 17.7424C31.2821 25.2357 32.7763 33.7831 37.6948 39.5182C39.9316 42.1262 42.7358 43.9823 45.8046 44.8861C45.9298 44.923 46.0561 44.9405 46.1803 44.9405C46.7542 44.9405 47.2836 44.5656 47.4538 43.9872C47.6609 43.2834 47.2585 42.545 46.5548 42.3378Z" ></path>
  </symbol>
  <symbol  xmlns="http://www.w3.org/2000/svg" viewBox="0 0 68 68" id="chain_icon">
    <g clip-path="url(#clip0_0_66)">
      <path d="M42.3584 25.6416C39.7244 23.0077 36.222 21.5571 32.4976 21.5571C28.7726 21.5571 25.2702 23.0077 22.6367 25.6416L9.48883 38.7896C4.86011 43.4178 4.1727 50.5165 7.42401 55.8803L0.972229 62.3321C-0.324249 63.6286 -0.324249 65.7308 0.972229 67.0278C1.62073 67.6758 2.47052 68 3.32031 68C4.17011 68 5.0199 67.6758 5.66788 67.0278L12.1197 60.576C14.3329 61.9171 16.8412 62.5889 19.3496 62.5889C22.9205 62.5889 26.4919 61.2297 29.2104 58.5112L37.3935 50.3282C36.7693 50.3935 36.1385 50.4272 35.5024 50.4272C33.2721 50.4272 31.1046 50.0221 29.0823 49.248L24.5148 53.8155C22.5117 55.8186 19.6262 56.4111 17.0991 55.5966L21.6054 51.0903C22.9024 49.7933 22.9024 47.6911 21.6054 46.3946C20.3089 45.0976 18.2067 45.0976 16.9097 46.3946L12.4034 50.9014C11.5894 48.3738 12.1814 45.4883 14.1845 43.4857L22.824 34.8456L27.3324 30.3378C28.7119 28.9578 30.5464 28.1983 32.4976 28.1983C34.4482 28.1983 36.2827 28.9578 37.6627 30.3378C38.4928 31.1679 39.0967 32.1629 39.4474 33.2488L44.4258 28.2699C43.851 27.3257 43.1599 26.4432 42.3584 25.6416V25.6416Z"  stroke="white" stroke-width="3"></path>
      <path d="M67.0273 0.972748C65.7308 -0.324249 63.6286 -0.324249 62.3316 0.972748L55.8788 7.42557C50.4739 4.1618 43.3264 4.95193 38.6837 9.59467L30.6065 17.6718C31.2307 17.607 31.8615 17.5728 32.4976 17.5728C34.7279 17.5728 36.8954 17.9779 38.9177 18.752L43.4852 14.1845C44.9093 12.7604 46.7801 12.0486 48.6504 12.0486C49.4109 12.0486 50.171 12.1679 50.9014 12.4034L46.3946 16.9102C45.0976 18.2067 45.0976 20.3089 46.3946 21.6059C47.0426 22.2539 47.8924 22.5781 48.7422 22.5781C49.592 22.5781 50.4418 22.2539 51.0898 21.6059L55.5696 17.1261C56.341 19.6837 55.6977 22.6321 53.7263 24.604L40.6676 37.6627C39.2881 39.0422 37.4536 39.8022 35.5024 39.8022C33.5518 39.8022 31.7173 39.0422 30.3373 37.6627C29.5072 36.8326 28.9033 35.8371 28.5526 34.7517L23.5742 39.7301C24.2585 40.8549 25.1083 41.8914 26.1132 42.8087C28.5765 45.0577 31.7878 46.3495 35.1227 46.4377C38.9888 46.5399 42.6401 45.0815 45.3633 42.3584L58.5112 29.2104C63.1394 24.5822 63.8273 17.4835 60.5755 12.1202L67.0273 5.6684C68.3242 4.3714 68.3242 2.26923 67.0273 0.972748V0.972748Z"  stroke="white" stroke-width="3"></path>
    </g>
    <defs>
      <clipPath id="clip0_0_66">
        <rect width="68" height="68" ></rect>
      </clipPath>
    </defs>
  </symbol>
</svg>