<svg width="68" height="68" viewBox="0 0 68 68" fill="none" xmlns="http://www.w3.org/2000/svg">
<path d="M7.31403 42.1849C7.06714 41.9379 6.72448 41.7971 6.37518 41.7971C6.02589 41.7971 5.68323 41.9379 5.4362 42.1849C5.18917 42.4333 5.04706 42.7746 5.04706 43.1252C5.04706 43.4745 5.18903 43.8159 5.4362 44.0642C5.68336 44.3113 6.02602 44.4534 6.37518 44.4534C6.72448 44.4534 7.06714 44.3113 7.31403 44.0642C7.56107 43.8159 7.70331 43.4745 7.70331 43.1252C7.70331 42.7746 7.5612 42.4333 7.31403 42.1849Z" fill="#EF0C0C"/>
<path d="M58.9687 0H9.03143C6.83445 0 5.04706 1.78739 5.04706 3.98438V29.8183C5.04706 29.8205 5.04706 29.8228 5.04706 29.825V38.4713C5.04706 39.2048 5.64179 39.7994 6.37518 39.7994C7.10857 39.7994 7.70331 39.2048 7.70331 38.4713V32.3367L7.71792 32.3466C13.072 35.9887 17.0922 41.1233 19.3435 47.1952C22.2731 55.0957 27.9882 61.518 35.353 65.3434H20.1012L18.9754 64.1474C16.2479 61.2502 14.7458 57.4635 14.7458 53.4845C14.7458 52.751 14.1511 52.1564 13.4177 52.1564C12.6843 52.1564 12.0896 52.751 12.0896 53.4845C12.0896 57.862 13.6428 62.0408 16.4798 65.3432H9.03143C8.2991 65.3432 7.70331 64.7474 7.70331 64.0151V48.2492C7.70331 47.5157 7.10857 46.9211 6.37518 46.9211C5.64179 46.9211 5.04706 47.5157 5.04706 48.2492V64.0152C5.04706 66.2122 6.83445 67.9996 9.03143 67.9996H42.0958C42.0988 67.9996 42.1019 68 42.1049 68C42.1082 68 42.1116 67.9996 42.115 67.9996H58.9687C61.1656 67.9996 62.953 66.2122 62.953 64.0152V3.98438C62.953 1.78739 61.1656 0 58.9687 0ZM60.2969 16.3495C58.9701 15.5968 57.4851 15.1963 55.9403 15.1963C53.4163 15.1963 51.0498 16.2609 49.2768 18.194C45.6883 22.1066 45.6883 28.4731 49.2768 32.3858C51.0498 34.3189 53.4163 35.3836 55.9403 35.3836C57.485 35.3836 58.9701 34.9829 60.2969 34.2304V47.0338C59.2574 48.4234 58.1233 49.6687 56.9196 50.735C56.3706 51.2214 56.3197 52.0608 56.8062 52.6098C57.0688 52.9061 57.434 53.0573 57.8008 53.0573C58.1139 53.0573 58.4282 52.9472 58.681 52.7232C59.2343 52.2332 59.7734 51.7096 60.2969 51.1567V64.0152C60.2968 64.7476 59.701 65.3434 58.9687 65.3434H42.3336L40.53 64.7036C31.8502 61.6249 25.036 54.9065 21.8342 46.2716C19.3899 39.6792 15.025 34.1047 9.21192 30.1502L7.70344 29.1241V3.98438C7.70344 3.25205 8.29924 2.65625 9.03157 2.65625H11.0579C12.6579 6.06794 13.503 9.8418 13.503 13.6093V17.1381C13.503 17.8716 14.0977 18.4662 14.8311 18.4662C15.5645 18.4662 16.1592 17.8716 16.1592 17.1381V13.6093C16.1592 9.86491 15.4018 6.11482 13.9613 2.65625H28.0503C23.6945 8.77346 21.2976 16.8169 21.2976 25.3503C21.2976 34.0057 23.7621 42.1584 28.2368 48.307C32.8041 54.5826 38.9169 58.0388 45.4491 58.0388C46.1825 58.0388 46.7773 57.4442 46.7773 56.7107C46.7773 55.9771 46.1825 55.3825 45.4491 55.3825C39.7887 55.3825 34.4389 52.3146 30.3845 46.7439C21.7991 34.9475 21.7991 15.753 30.3846 3.95648C30.7102 3.50917 31.048 3.07395 31.3925 2.65612H58.9688C59.7011 2.65612 60.2969 3.25191 60.2969 3.98424V16.3495ZM60.2968 19.6371V30.9432C59.0818 32.0964 57.5527 32.7277 55.9401 32.7277C54.1695 32.7277 52.4982 31.9688 51.2343 30.5907C48.5538 27.668 48.5538 22.9124 51.2343 19.9896C52.4982 18.6115 54.1695 17.8527 55.9401 17.8527C57.5527 17.8528 59.0818 18.4839 60.2968 19.6371Z" fill="#EF0C0C"/>
<path d="M46.5659 6.79755C46.3149 6.10838 45.5524 5.75298 44.8635 6.00399C42.1708 6.98468 39.6918 8.73382 37.6947 11.0622C37.2171 11.6189 37.2814 12.4574 37.8383 12.9349C38.0888 13.1498 38.3962 13.2549 38.7022 13.2549C39.0764 13.2549 39.4484 13.0976 39.7111 12.7914C41.4116 10.8086 43.5075 9.32457 45.7724 8.49994C46.4615 8.24892 46.8168 7.48671 46.5659 6.79755Z" fill="#EF0C0C"/>
<path d="M52.3244 44.0879C52.2825 43.3556 51.6598 42.7971 50.9223 42.838L50.8985 42.8394C50.1662 42.8813 49.6066 43.509 49.6487 44.2413C49.6893 44.9478 50.2748 45.4935 50.9735 45.4935C50.999 45.4935 51.0249 45.4927 51.0508 45.4912L51.0746 45.4899C51.8069 45.4479 52.3665 44.8203 52.3244 44.0879Z" fill="#EF0C0C"/>
<path d="M46.5548 42.3378C43.9795 41.5795 41.6129 40.0064 39.711 37.7889C35.3965 32.7582 34.0956 25.232 36.3969 18.6148C36.6377 17.9221 36.2716 17.1651 35.5788 16.9241C34.885 16.6832 34.129 17.0495 33.8881 17.7424C31.2821 25.2357 32.7763 33.7831 37.6948 39.5182C39.9316 42.1262 42.7358 43.9823 45.8046 44.8861C45.9298 44.923 46.0561 44.9405 46.1803 44.9405C46.7542 44.9405 47.2836 44.5656 47.4538 43.9872C47.6609 43.2834 47.2585 42.545 46.5548 42.3378Z" fill="#EF0C0C"/>
</svg>
